<?xml version="1.0" encoding="utf-8"?>
<!-- Generator: Adobe Illustrator 16.0.0, SVG Export Plug-In . SVG Version: 6.00 Build 0)  -->
<!DOCTYPE svg PUBLIC "-//W3C//DTD SVG 1.1//EN" "http://www.w3.org/Graphics/SVG/1.1/DTD/svg11.dtd">
<svg version="1.1" id="Layer_1" xmlns="http://www.w3.org/2000/svg" xmlns:xlink="http://www.w3.org/1999/xlink" x="0px" y="0px"
	 width="100%" height="auto" viewBox="0 0 200 160" enable-background="new 0 0 200 160" xml:space="preserve">
<rect x="5.486" y="121.448" fill="#FCF6F3" width="189.027" height="2.151"/>
<g>
	<path fill="#FCF6F3" d="M105.188,99.916l-9.133,3.732c-0.005,4.834,0.025,8.904,0.138,11.411c0.155,3.388,2.181,4.876,4.475,5.002
		c2.907,0.162,4.54-2.141,4.471-5.921C105.092,111.217,105.131,105.16,105.188,99.916z"/>
	<path fill="#FCF6F3" d="M107.57,98.939c0.121,5.804,0.27,13.022,0.348,16.033c0.061,2.866,2.018,4.794,4.516,4.794
		c2.191,0,4.244-1.561,4.434-4.979c0.246-4.521,0.33-11.899,0.338-19.785L107.57,98.939z"/>
	<path fill="#FCF6F3" d="M115.174,38.771c0,4.772-3.877,8.639-8.648,8.639s-8.639-3.867-8.639-8.639
		c0-4.769,3.868-8.639,8.639-8.639S115.174,34.002,115.174,38.771z"/>
	<path fill="#FCF6F3" d="M122.402,73.599l-50.483,35.188l1.571,2.495l50.631-20.71l7.238-5.781L122.402,73.599z M118.955,79.746
		l2.982-2.604l6.457,7.373l-3.164,2.31L118.955,79.746z"/>
	<path fill="#FCF6F3" d="M127.443,64.118c-0.059-0.162-0.168-0.322-0.236-0.492h0.061c-0.727-1.745-1.777-3.392-2.904-4.86
		c-0.039-0.046-0.068-0.082-0.107-0.13c-2.885-3.746-6.232-6.313-6.232-6.313s-3.061-2.54-5.307-2.995
		c-1.42-0.289-3.443-0.142-5.631-0.158c-0.559-0.01-2.992-0.296-4.986,0.178c-1.667,0.401-2.972,1.569-3.021,1.611
		c-4.493,3.998-17.029-3.548-17.472-8.603c-0.331-3.785-3.933-2.716-3.933-2.716s-3.574,0.62-2.049,7.314
		c0.651,2.862,2.99,5.222,6.629,8.048c4.797,3.716,13.438,4.798,14.606,4.761c0,0.008-0.022,0.735-0.052,1.952h-0.052
		c-0.104,4.572-0.394,16.591-0.563,28.347l20.93-14.579c-0.062-4.942-0.113-9.132-0.145-11.856h0.055
		c-0.031-1.912-0.049-3.07-0.049-3.194c0.139,0.151,1.146,1.25,2.369,3.04c0.078,0.121,0.154,0.219,0.238,0.345
		c0.701,1.063,1.439,2.325,2.096,3.748c0.006,0.008,0.006,0.018,0.006,0.043c0.314,0.672,0.6,1.39,0.857,2.134
		c0.041,0.138,0.084,0.293,0.131,0.436c0.188,0.624,0.367,1.248,0.498,1.91c0.475,2.212,0.576,4.597-0.037,7.046
		c-0.508,2.026,0.492,3.085,2.697,3.694c2.225,0.61,2.961-2.098,3.58-4.189C130.023,76.552,129.91,70.639,127.443,64.118z"/>
	<g>
		<path fill="#FCF6F3" d="M77.643,111.183c-0.166,5.127-0.269,8.523-0.269,8.523l3.148,0.612c0,0,0.021-3.964,0.074-10.345
			L77.643,111.183z"/>
		<path fill="#FCF6F3" d="M80.646,104.504L77.79,106.5c-0.02,0.481-0.033,0.972-0.045,1.445l2.881-1.18
			C80.628,106.033,80.631,105.292,80.646,104.504z"/>
		<path fill="#FCF6F3" d="M79.406,65.769c-2.149-3.744-6.013-10.431-7.721-13.152c-5.194-8.266-7.799-15.933-7.799-15.933
			l-0.42,0.245c0,0,2.381,7.422,7.125,15.566c3.728,6.404,7.326,13.111,8.666,15.657c-0.441,8.404-0.97,23.095-1.354,34.661
			l2.793-1.936c0.084-6.778,0.22-14.811,0.427-23.219c1.141-1.435,5.764-7.249,10.417-12.757c5.376-6.358,8.837-12.274,8.837-12.274
			l-0.258-0.229c0,0-3.685,6.11-9.424,12.547c-2.124,2.375-7.378,8.64-9.531,11.209c0.112-4.048,0.24-8.154,0.383-12.243
			c0.198-5.481,0.232-10.744,0.164-15.7c1.299-1.221,5.34-4.973,9.47-8.443c5.034-4.219,8.03-8.857,8.03-8.857l-0.313-0.342
			c0,0-3.208,4.718-8.637,8.862c-1.894,1.442-6.402,5.266-8.589,7.135c-0.077-4.078-0.213-7.918-0.395-11.428
			c1.174-1.117,3.794-3.611,6.413-5.98c3.536-3.184,5.948-6.27,5.948-6.27l-0.134-0.145c0,0-2.546,3.171-6.289,6.369
			c-1.302,1.116-4.431,3.949-5.976,5.357c-0.687-12.691-1.825-21.005-1.825-21.005l-1.14-0.066c0,0,1.12,9.064,1.554,22.78
			c-1.836-2.885-4.798-7.509-6.148-9.464c-4.314-6.216-6.559-12.087-6.559-12.087l-0.321,0.208c0,0,2.048,5.697,5.999,11.839
			c2.962,4.599,5.84,9.423,7.08,11.542c0.085,3.163,0.115,6.542,0.103,10.099c-1.994-2.521-5.607-7.173-8.978-11.899
			c-4.999-6.99-10.661-11.417-10.661-11.417l-0.462,0.355c0,0,5.762,4.716,10.606,12.199c2.07,3.195,8.349,11.822,9.467,13.357
			c-0.057,4.714-0.22,9.678-0.546,14.828C79.406,65.747,79.406,65.762,79.406,65.769z"/>
	</g>
</g>
</svg>
