<?xml version="1.0" encoding="utf-8"?>
<!-- Generator: Adobe Illustrator 16.0.0, SVG Export Plug-In . SVG Version: 6.00 Build 0)  -->
<!DOCTYPE svg PUBLIC "-//W3C//DTD SVG 1.1//EN" "http://www.w3.org/Graphics/SVG/1.1/DTD/svg11.dtd">
<svg version="1.1" xmlns="http://www.w3.org/2000/svg" xmlns:xlink="http://www.w3.org/1999/xlink" x="0px" y="0px" width="100%"
	 height="auto" viewBox="0 0 200 160" enable-background="new 0 0 200 160" xml:space="preserve">
<g id="Layer_1">
	<rect x="5.486" y="121.448" fill="#FCF6F3" width="189.027" height="2.151"/>
</g>
<g id="decorating" display="none">
	<circle display="inline" fill="#FCF6F3" cx="100.416" cy="40.939" r="8.522"/>
	<rect x="36.918" y="19.949" display="inline" fill="#FCF6F3" width="2.054" height="102.327"/>
	<polygon display="inline" fill="#FCF6F3" points="94.942,106.07 69.363,106.07 69.363,109.227 70.957,109.227 70.957,122.896 
		73.011,122.896 73.011,109.227 91.525,109.227 91.525,122.896 93.58,122.896 93.58,109.227 94.942,109.227 	"/>
	<path display="inline" fill="#FCF6F3" d="M89.618,61.017h0.897C90.381,60.942,90.021,60.793,89.618,61.017z"/>
	<path display="inline" fill="#FCF6F3" d="M129.343,37.573c-1.475-1.347-4.114-0.778-6.357,1.603
		c-1.697,1.791-5.082,5.387-8.534,9.059c-1.359,1.444-4.975,3.459-6.919,3.764c-1.215,0.191-3.183-0.092-5.152-0.106
		c-0.55-0.01-2.95-0.292-4.915,0.175c-1.129,0.271-1.954,0.636-2.578,0.748c-1.03,0.183-2.962-0.275-3.82-0.872
		c-5.44-3.776-10.782-10.23-13.243-12.631c-2.333-2.293-4.993-2.759-6.414-1.354c-1.246,1.23-1.166,3.651,1.47,6.532
		c3.418,3.736,9.127,9.618,15.306,15.885h-0.003l0.146,0.147c0.074,0.076,0.146,0.148,0.223,0.226c0,0,0.839,0.735,1.046,1.039
		c0.692,1.022,1.801,2.967,1.801,2.967c0.432,1.048,1.248,3.766,1.204,4.816c-0.146,3.452,0.083,5.439-0.493,9.61
		c-0.043,0.309-0.088,1.768-1.306,1.573c-2.599-0.418-5.228-0.801-7.302-0.875c-2.824-0.099-5.123,0.241-5.972,2.553
		c-0.096,0.261-0.165,0.526-0.208,0.796l-0.06,2.307c0.119,5.723,0.265,12.84,0.343,15.809c0.06,2.826,1.991,4.728,4.454,4.728
		c2.159,0,4.186-1.539,4.37-4.91c0.143-2.651,0.23-6.312,0.279-10.472c3.915,0.516,7.116,2.141,11.499,3.755
		c0,0,1.674,0.722,2.118,1.329c0.757,1.035,1.511,5.151,1.511,5.151c0.856,6.31,1.285,12.884,1.363,15.854
		c0.06,2.826,1.99,4.727,4.453,4.727c2.16,0,4.187-1.539,4.371-4.91c0.237-4.37,0.321-11.452,0.332-19.057h0.001v-0.179
		c0-0.091,0.002-0.181,0.002-0.272h-0.002c0,0,0.134-8.871-0.565-14.381c-0.597-4.706-1.988-12.148-0.531-18.972
		c0.093-0.434,0.517-1.235,0.783-1.589c0.232-0.31,1.054-1.134,1.054-1.134c0.072-0.079,0.141-0.152,0.213-0.233l0.141-0.152h-0.002
		c5.93-6.503,11.407-12.602,14.678-16.467C130.649,41.178,130.636,38.755,129.343,37.573z"/>
	<rect x="162.956" y="19.949" display="inline" fill="#FCF6F3" width="2.055" height="102.327"/>
	<path display="inline" fill="#FCF6F3" d="M165.549,21.642c15.156,6.484,14.065,6.073,32.284,11.033
		c0.42-0.106,0.197,0.001,0.42-0.106c0.832-0.4,0.314-1.361-0.395-1.555c-15.954-4.359-16.834-4.545-31.844-10.966
		C165.03,19.626,164.578,21.227,165.549,21.642L165.549,21.642z"/>
	<path display="inline" fill="#FCF6F3" d="M1.833,33.209c16.244-2.807,21.271-4.999,35.692-11.104
		c0.294-0.319,0.166-0.107,0.294-0.319c0.48-0.788-0.497-1.37-1.177-1.088c-15.021,6.222-19.2,8.141-35.286,10.92
		C0.3,31.801,0.792,33.389,1.833,33.209L1.833,33.209z"/>
	<g display="inline">
		<path fill="#FCF6F3" d="M53.85,42.381c2.023,1.008,4.48,0.186,5.489-1.838c0.34-0.68,0.471-1.413,0.419-2.121
			c-0.064-0.864-0.539-1.449-0.644-2.315c-0.024-0.197,0.079-0.62,0.152-0.889l-3.293-1.64c-0.145,0.244-0.419,0.671-0.621,0.803
			c-0.668,0.438-1.46,0.569-2.103,1.044c-0.507,0.373-0.938,0.866-1.236,1.468C51.004,38.915,51.828,41.373,53.85,42.381z"/>
		<path fill="#FCF6F3" d="M59.43,34.79l0.204-0.409l0.064-0.129l0.205-0.41l0,0c0.006-0.013,0.572-1.173-1.038-1.976
			c-1.611-0.802-2.197,0.349-2.202,0.363l0,0l-0.205,0.409l-0.063,0.129l-0.204,0.41L59.43,34.79z"/>
	</g>
	<g display="inline">
		<path fill="#FCF6F3" d="M23.051,40.754c2.118-0.791,3.193-3.149,2.403-5.267c-0.266-0.713-0.711-1.309-1.264-1.754
			c-0.675-0.542-1.427-0.595-2.131-1.109c-0.162-0.117-0.399-0.48-0.546-0.717l-3.446,1.287c0.079,0.272,0.204,0.764,0.162,1.002
			c-0.135,0.788-0.58,1.457-0.672,2.248c-0.074,0.625-0.007,1.277,0.229,1.906C18.576,40.468,20.934,41.544,23.051,40.754z"/>
		<path fill="#FCF6F3" d="M21.312,31.495l-0.16-0.428L21.1,30.932l-0.16-0.43l0,0c-0.005-0.014-0.467-1.22-2.152-0.59
			c-1.686,0.629-1.245,1.843-1.238,1.857l0,0l0.158,0.429l0.052,0.134l0.16,0.429L21.312,31.495z"/>
	</g>
	<g display="inline">
		<path fill="#FCF6F3" d="M147.555,42.339c2.15-0.697,3.33-3.006,2.632-5.155c-0.235-0.724-0.654-1.339-1.187-1.809
			c-0.649-0.571-1.398-0.656-2.078-1.2c-0.157-0.124-0.379-0.5-0.516-0.742l-3.5,1.135c0.066,0.277,0.17,0.773,0.117,1.01
			c-0.169,0.781-0.641,1.429-0.769,2.216c-0.103,0.62-0.063,1.274,0.146,1.914C143.096,41.858,145.406,43.037,147.555,42.339z"/>
		<path fill="#FCF6F3" d="M146.224,33.013l-0.142-0.434l-0.046-0.137l-0.14-0.437l0,0c-0.005-0.015-0.413-1.239-2.126-0.684
			c-1.71,0.554-1.323,1.787-1.316,1.801l0,0l0.139,0.435l0.045,0.137l0.142,0.435L146.224,33.013z"/>
	</g>
	<g display="inline">
		<path fill="#FCF6F3" d="M180.006,40.944c2.004,1.047,4.479,0.272,5.524-1.731c0.353-0.675,0.499-1.404,0.462-2.112
			c-0.048-0.864-0.512-1.458-0.599-2.326c-0.021-0.198,0.091-0.62,0.169-0.887l-3.26-1.705c-0.151,0.242-0.434,0.663-0.64,0.791
			c-0.676,0.426-1.469,0.542-2.12,1.003c-0.516,0.361-0.955,0.847-1.266,1.444C177.229,37.423,178.005,39.897,180.006,40.944z"/>
		<path fill="#FCF6F3" d="M185.735,33.464l0.21-0.405l0.066-0.128l0.214-0.406l0,0c0.007-0.014,0.596-1.163-1.001-1.996
			c-1.593-0.833-2.203,0.306-2.208,0.32l0,0l-0.213,0.404l-0.066,0.129l-0.211,0.405L185.735,33.464z"/>
	</g>
	<path display="inline" fill="#FCF6F3" d="M40.321,20.115c0,1.312-1.063,2.375-2.375,2.375l0,0c-1.311,0-2.375-1.063-2.375-2.375
		l0,0c0-1.311,1.064-2.374,2.375-2.374l0,0C39.258,17.741,40.321,18.804,40.321,20.115L40.321,20.115z"/>
	<path display="inline" fill="#FCF6F3" d="M166.357,20.115c0,1.312-1.062,2.375-2.375,2.375l0,0c-1.311,0-2.374-1.063-2.374-2.375
		l0,0c0-1.311,1.063-2.374,2.374-2.374l0,0C165.295,17.741,166.357,18.804,166.357,20.115L166.357,20.115z"/>
	<g display="inline">
		<path fill="#FCF6F3" d="M92.601,35.388c-12.193-0.878-29.067-3.662-40.83-8.728c-5.287-2.276-9.527-4.736-11.973-6.043
			c-0.933-0.499-1.874,0.495-0.941,0.993l0.116,0.44c4.699,2.458,7.753,4.297,12.426,6.204c13.222,5.396,28.753,7.811,40.209,8.694
			L92.601,35.388z"/>
		<path fill="#FCF6F3" d="M163.588,19.646c-11.312,5.174-19.641,8.657-29.638,11.099c-8.522,2.081-16.949,3.834-25.586,4.571
			l0.91,1.547c7.12-0.738,14.593-2.208,21.853-3.738c11.685-2.463,22.146-7.086,32.895-11.877
			C164.984,20.819,164.55,19.208,163.588,19.646z"/>
	</g>
</g>
<g id="locksmith" display="none">
	<g display="inline">
		<circle fill="#FCF6F3" cx="132.257" cy="56.896" r="8.522"/>
		<path fill="#FCF6F3" d="M133.057,67.171c1.965-0.467,4.365-0.186,4.914-0.176c1.971,0.016,4.281,2.938,4.848,3.938
			c1.543,3.632,1.955,14.191,2.012,23.499c0.012,2.033,0.006,4.007-0.008,5.835c-0.04,5.161-0.477,4.812-0.838,5.666
			c-0.464,1.099-2.305,2.899-3.416,3.333c-1.209,0.472-3.245,0.672-5.167,0.5c-0.811-0.072-3.015-0.832-4.01-1.143
			c-4.458-1.393-8.921-4.434-12.836-4.949c-0.049,4.16-0.137,9.938-0.279,12.589c-0.185,3.371-2.211,4.91-4.37,4.91
			c-2.463,0-4.394-1.9-4.454-4.727c-0.078-2.969-0.223-12.204-0.342-17.927l0.059-2.307c0.043-0.27,0.112-0.535,0.208-0.797
			c0.849-2.311,3.147-2.65,5.972-2.553c2.074,0.074,8.448,2.575,11.046,2.993c1.219,0.195,1.264-1.264,1.307-1.572
			c0.576-4.172,0.346-6.158,0.492-9.611c0.01-0.219-0.176-3.548-0.229-3.882c1.112-0.322,2.712-1.118,4.469-1.906
			c2.719-1.219,3.281-1.807,3.281-1.807s-5.062,2.213-7.351,2.875c-1.501,0.435-6.793,1.977-7.088,2.042
			c-3.01,0.666-5.676,0.391-6.939-1.354c-0.773-1.069-1.517-2.1-2.221-3.082c-1.615-2.255-5.652-7.526-6.764-9.158
			c-2.199-3.226-1.934-5.634-0.524-6.675c1.604-1.188,4.171-0.347,6.155,2.254c0.97,1.262,5.056,6.74,6.822,9.197
			c0.776,1.082,4.671-0.304,8.376-2.041C127.948,70.307,132.128,67.395,133.057,67.171z"/>
	</g>
	<path display="inline" fill="#FCF6F3" d="M142.714,113.141c-1.724-0.088-4.961-0.453-8.513-0.916
		c0.42-0.551,0.854-1.122,1.292-1.699c-3.375-0.465-7.412-2.453-9.385-3.52c-1.831,2.993-3.502,5.536-4.514,6.98
		c-1.635,2.308-1.214,4.983,0.765,6.448c1.164,0.862,2.236,0.694,3.541,0.831c0.209,0.021,4.379-0.088,4.361-0.037
		c4.721,0.058,8.886,0.055,11.824-0.051c3.375-0.125,4.963-2.28,5.016-4.615C147.162,113.9,145.539,113.269,142.714,113.141z"/>
	<g display="inline">
		<rect x="153.456" y="107.006" fill="#FCF6F3" width="23.375" height="14.167"/>
		<polygon fill="#FCF6F3" points="171.538,102.799 158.748,102.799 158.748,104.377 159.545,104.377 159.545,111.212 
			160.572,111.212 160.572,104.377 169.829,104.377 169.829,111.212 170.856,111.212 170.856,104.377 171.538,104.377 		"/>
	</g>
	<path display="inline" fill="#FCF6F3" d="M85.053,63.627c0-0.347-0.281-0.628-0.627-0.628c-0.348,0-0.629,0.281-0.629,0.628
		c0,0.236,0.132,0.442,0.325,0.549l-0.321,1.565h1.248l-0.32-1.565C84.921,64.069,85.053,63.863,85.053,63.627z"/>
	<path display="inline" fill="#FCF6F3" d="M111.38,63.676c0.253,0.33,0.708,0.932,1.272,1.685c0.115-0.233,0.186-0.493,0.186-0.771
		c0-0.969-0.785-1.754-1.754-1.754h-0.428C110.904,63.097,111.148,63.371,111.38,63.676z"/>
	<path display="inline" fill="#FCF6F3" d="M103.451,62.835h-3.697c-0.763,0-1.404,0.489-1.646,1.169h-1.963h-3.808h-0.371
		l-0.444-0.627l-2.992,0.627v1.171l2.992,0.627l0.445-0.627h0.37h3.808h1.963c0.242,0.68,0.885,1.169,1.646,1.169h3.938
		C103.148,64.91,103.144,63.731,103.451,62.835z"/>
	<path display="inline" fill="#FCF6F3" d="M90.193,60.343v-1.125h-1.938V6.114H26.657v115.334h61.599V62.835h0.725l0.879-0.879
		h-1.604v-0.319h1.938v-0.879h-1.938v-0.415H90.193z M56.499,115.295h-22.11V64.669h22.11V115.295z M56.499,62.896h-22.11V12.269
		h22.11V62.896z M80.887,115.295H58.778V64.669h22.109V115.295z M58.778,62.896V12.27h22.109v46.678h3.041
		c0.621,0,1.125,0.504,1.125,1.125s-0.504,1.125-1.125,1.125h-3.041v1.698H58.778z M86.178,66.481c0,0.78-0.783,1.414-1.75,1.414
		c-0.966,0-1.75-0.634-1.75-1.414v-4.919h1.7c0.645,0,1.167-0.667,1.167-1.49s-0.522-1.49-1.167-1.49h-1.7V58.31
		c0-0.78,0.784-1.414,1.75-1.414c0.967,0,1.75,0.634,1.75,1.414V66.481z"/>
</g>
<g id="guttering" display="none">
	<path display="inline" fill="#FCF6F3" d="M85.778,15.79"/>
	<path display="inline" fill="#FCF6F3" d="M92.408,105.374"/>
	<circle display="inline" fill="#FCF6F3" cx="127.257" cy="42.246" r="8.522"/>
	<path display="inline" fill="#FCF6F3" d="M103.605,114.564c0,0-0.82,2.995,0,4.879c1.334,3.062,3.896,1.968,3.896,1.968
		s2.009-1.009,0.513-3.509C106.886,116.02,103.605,114.564,103.605,114.564z"/>
	<path display="inline" fill="#FCF6F3" d="M97.779,119.145c0,0,1.623,1.733,3.104,2.164c2.406,0.701,2.593-1.049,2.593-1.049
		s0.051-1.44-2.055-1.811C99.836,118.17,97.779,119.145,97.779,119.145z"/>
	<path display="inline" fill="#FCF6F3" d="M101.752,112.625c0,0-2.719,0.229-4.321,0.895c-2.604,1.082-1.429,1.881-1.429,1.881
		s1.055,0.599,3.148-0.442C100.729,114.172,101.752,112.625,101.752,112.625z"/>
	<path display="inline" fill="#FCF6F3" d="M99.596,118.172c0,0-1.733-1.899-3.33-2.387c-2.597-0.793-2.822,1.099-2.822,1.099
		s-0.074,1.557,2.2,1.988C97.356,119.197,99.596,118.172,99.596,118.172z"/>
	<path display="inline" fill="#FCF6F3" d="M97.65,115.207c0,0,1.449,2.123,2.962,2.83c2.46,1.148,2.948-0.692,2.948-0.692
		s0.292-1.531-1.899-2.277C100.011,114.506,97.65,115.207,97.65,115.207z"/>
	<path display="inline" fill="#FCF6F3" d="M114.598,120.823c0,0-1.741-1.891-3.34-2.373c-2.6-0.78-2.816,1.112-2.816,1.112
		s-0.068,1.557,2.209,1.979C112.363,121.857,114.598,120.823,114.598,120.823z"/>
	<path display="inline" fill="#FCF6F3" d="M91.916,120.363c0,0,2.297,1.154,3.963,1.042c2.707-0.188,2.243-2.035,2.243-2.035
		s-0.485-1.479-2.765-1.072C93.643,118.607,91.916,120.363,91.916,120.363z"/>
	<rect x="84" y="36.25" display="inline" fill="#FCF6F3" width="10.25" height="3.25"/>
	<rect x="80.5" y="37.125" display="inline" fill="#FCF6F3" width="10.25" height="1.25"/>
	<rect x="84.166" y="67.375" display="inline" fill="#FCF6F3" width="10.25" height="3.25"/>
	<rect x="81" y="68.25" display="inline" fill="#FCF6F3" width="10.25" height="1.25"/>
	<rect x="84.5" y="104.5" display="inline" fill="#FCF6F3" width="10.25" height="3.25"/>
	<rect x="81" y="105.375" display="inline" fill="#FCF6F3" width="10.25" height="1.25"/>
	<path display="inline" fill="#FCF6F3" d="M93.348,117.661c0,0-2.543-0.381-4.09,0.245c-2.515,1.022-1.497,2.633-1.497,2.633
		s0.923,1.256,2.962,0.157C92.255,119.867,93.348,117.661,93.348,117.661z"/>
	<g display="inline">
		<path fill="#FCF6F3" d="M101.987,68.47c0.136,0.341,0.341,0.602,0.592,0.815l-0.693-2.721
			C101.739,67.231,101.757,67.89,101.987,68.47z"/>
		<path fill="#FCF6F3" d="M143.008,82.592c-0.57-4.499-1.088-9.583-0.7-18.069c0,0,0.097-6.701-1.82-9.386
			c-1.458-2.042-5.095-3.343-6.892-3.357c-0.55-0.01-2.95-0.291-4.915,0.176c-1.129,0.271-1.954,0.635-2.578,0.748
			c-1.007,0.178-2.698,0.767-4.532,1.934l-3.865,1.982c-2.809,1.725-5.096,2.928-7.071,3.864l1.803,7.081
			c2.584-0.84,5.423-1.771,10.051-3.595c0.278,0.47,0.698,2.271,0.875,3.062c2.147-0.766,8.312-3.75,8.312-3.75
			c-5.812,4.125-14.129,6.656-18.188,8.271c-0.011,0.005-0.021,0.009-0.031,0.014l0.022,0.091c-0.051,0.021-0.107,0.042-0.158,0.062
			c-3.627,1.444-4.104,3.844-3.332,5.417c0.879,1.794,5.27,0.999,8.857,0.008c1.358-0.375,2.605-0.672,3.87-1.002l0.038-0.133
			c2.344-0.607,4.731-1.316,7.983-2.853c1.048-0.494,2.713-1.114,4.19-2.317c0.006,0.086,0.061,0.197-0.003,0.255
			c-2.438,2.188-6.188,3.625-10,4.938c0.063,1.496,0.079,3.489-0.188,4.688c-0.058,3.417-0.694,16.242-0.694,16.242h-0.002
			c0,0.092,0.002,0.182,0.002,0.273v0.178c0,0.231,0,0.461,0.001,0.691l0.347-0.073l0.495-0.117l3.521-0.872l2.381,9.618
			l-4.479,1.108c-0.313,0.092-1.118,0.305-2.187,0.479c0.05,3.228,0.126,6.059,0.237,8.222c0.178,3.371,2.109,4.91,4.172,4.91
			c2.35,0,4.191-1.9,4.248-4.727c0.105-4.114,0.32-17.662,0.627-22.747c0.016,0.082,0.688,0.031,0.688,0.031
			c0.856,6.311,0.244,19.758,0.322,22.727c0.06,2.826,1.99,4.727,4.453,4.727c2.16,0,4.187-1.539,4.371-4.91
			c0.237-4.369,0.321-11.451,0.332-19.057h0.001v-0.178c0-0.092,0.002-0.182,0.002-0.273h-0.002
			C143.573,96.973,143.707,88.102,143.008,82.592z"/>
	</g>
	<path display="inline" fill="#FCF6F3" d="M127.858,97.95l-3.552,0.88l-0.002-0.01c0,0-1.934,1.153-3.734,0.119
		c-0.85-0.487-1.638-2.821-1.638-2.821l-4.405-17.301c-0.643,0.082-1.249,0.138-1.771,0.138c-1.8,0-2.958-0.501-3.442-1.488
		c-0.476-0.971-0.52-2.066-0.127-3.088c0.355-0.918,1.249-2.18,3.407-3.154l-4.702-18.468l-8.233,2.039l11.085,43.482l0.102-0.027
		c0.383,1.729,1.621,6.254,4.448,8.041c4.033,2.549,9.754,1.063,10.835,0.748l3.75-0.928L127.858,97.95z"/>
	<path display="inline" fill="#FCF6F3" d="M13,31.375v51.25h52v-51.25H13z M63.125,80.5h-48.25v-47h48.25V80.5z"/>
	<path display="inline" fill="#FCF6F3" d="M97.406,9.658H5.249v6.415h69.76v0.066l9.825,0.055L85.14,60.5h8.485l-0.291-44.101
		L97,15.155C97,15.155,98.363,12.712,97.406,9.658z"/>
	<polygon display="inline" fill="#FCF6F3" points="86.334,2 5.249,2 5.249,7.386 77.89,7.386 77.89,117.871 5.249,117.871 
		5.249,121.671 81.688,121.671 81.688,7.386 95.288,7.386 	"/>
</g>
<g id="demolition" display="none">
	<g display="inline">
		<path fill="#FCF6F3" d="M69.715,65.799c0,2.6,0.521,4.811-2.999,4.811H54.721c-3.519,0-3.467-1.797-3.467-4.396l0,0
			c0-2.599-0.052-5.016,3.467-5.016h11.996C70.236,61.197,69.715,63.2,69.715,65.799L69.715,65.799z"/>
		<path fill="#FCF6F3" d="M79.194,75.869c0,2.6,0.521,4.811-2.999,4.811H64.2c-3.52,0-3.467-1.796-3.467-4.396l0,0
			c0-2.598-0.053-5.017,3.467-5.017h11.995C79.714,71.267,79.194,73.27,79.194,75.869L79.194,75.869z"/>
		<path fill="#FCF6F3" d="M56.516,71.163H44.52c-0.511,0-0.94,0.057-1.312,0.151v9.146c0.372,0.072,0.801,0.115,1.312,0.115h11.996
			c3.519,0,2.999-2.211,2.999-4.812C59.514,73.166,60.035,71.163,56.516,71.163z"/>
		<path fill="#FCF6F3" d="M47.037,61.093h-3.829v9.413h3.829c3.52,0,2.999-2.211,2.999-4.811
			C50.035,63.097,50.556,61.093,47.037,61.093z"/>
		<path fill="#FCF6F3" d="M57.078,51.126H45.083c-0.796,0-1.402,0.13-1.875,0.351v8.794c0.473,0.173,1.078,0.269,1.875,0.269h11.995
			c3.52,0,2.999-2.211,2.999-4.81C60.077,53.13,60.597,51.126,57.078,51.126z"/>
		<path fill="#FCF6F3" d="M50.611,41.057h-7.403v9.413h7.403c3.52,0,2.999-2.211,2.999-4.811S54.131,41.057,50.611,41.057z"/>
		<path fill="#FCF6F3" d="M70.139,85.965c0,2.6,0.521,4.811-2.999,4.811H55.145c-3.52,0-3.467-1.796-3.467-4.396l0,0
			c0-2.598-0.052-5.017,3.467-5.017H67.14C70.659,81.362,70.139,83.365,70.139,85.965L70.139,85.965z"/>
		<path fill="#FCF6F3" d="M56.307,91.355H44.312c-0.512,0-0.94,0.056-1.312,0.151v9.146c0.372,0.072,0.8,0.115,1.312,0.115h11.995
			c3.52,0,2.999-2.21,2.999-4.811C59.306,93.358,59.827,91.355,56.307,91.355z"/>
		<path fill="#FCF6F3" d="M56.412,111.443H44.416c-0.511,0-0.94,0.056-1.312,0.15v9.146c0.372,0.072,0.801,0.115,1.312,0.115h11.996
			c3.519,0,2.999-2.211,2.999-4.811S59.931,111.443,56.412,111.443z"/>
		<path fill="#FCF6F3" d="M48.397,101.347h-5.293v9.413h5.293c3.52,0,2.999-2.211,2.999-4.812
			C51.396,103.35,51.917,101.347,48.397,101.347z"/>
		<path fill="#FCF6F3" d="M47.877,81.26h-4.773v9.412h4.773c3.519,0,2.999-2.211,2.999-4.811S51.396,81.26,47.877,81.26z"/>
		<path fill="#FCF6F3" d="M56.074,31.159H44.079c-0.379,0-0.709,0.033-1.01,0.086v9.262c0.301,0.04,0.631,0.065,1.01,0.065h11.995
			c3.52,0,2.999-2.211,2.999-4.811S59.594,31.159,56.074,31.159z"/>
		<circle fill="#FCF6F3" cx="139.249" cy="41.173" r="8.522"/>
		<path fill="#FCF6F3" d="M108.842,9.735l0.459-0.062c0.432-0.057,0.865-0.107,1.299-0.154l-0.018-0.143c0,0-0.014-0.567-0.164-0.7
			c-0.129-0.116-0.421-0.065-0.421-0.065L106.996,9c0,0-0.33,0.042-0.416,0.152c-0.09,0.117-0.069,0.503-0.069,0.503l0.056,0.429
			C107.316,9.958,108.076,9.84,108.842,9.735z"/>
		<path fill="#FCF6F3" d="M108.904,10.184c-12.657,1.73-23.261,6.771-23.261,6.771l2.167,0.166c0,0,0.036-0.009,0.09-0.022
			c0.022-0.004,0.043-0.009,0.073-0.016c0.023-0.006,0.05-0.013,0.075-0.019s0.053-0.012,0.081-0.019
			c0.12-0.028,0.274-0.065,0.459-0.105c0.024-0.006,0.049-0.013,0.075-0.019c0.229-0.054,0.503-0.117,0.812-0.188
			c0.105-0.025,0.211-0.049,0.324-0.076c0.096-0.021,0.198-0.044,0.298-0.067c0.053-0.011,0.105-0.024,0.161-0.037
			c0.147-0.033,0.301-0.069,0.46-0.104c0.016-0.003,0.033-0.006,0.05-0.011c0.17-0.04,0.348-0.08,0.528-0.121
			c0.005-0.003,0.01-0.002,0.013-0.004c0.935-0.212,2.012-0.454,3.173-0.713c0.04-0.01,0.08-0.019,0.121-0.026
			c0.193-0.043,0.388-0.086,0.585-0.131c0.067-0.016,0.135-0.027,0.201-0.044c0.199-0.045,0.397-0.088,0.601-0.132
			c0.045-0.011,0.091-0.021,0.138-0.032c0.219-0.048,0.438-0.096,0.661-0.145c0.009,0,0.018-0.003,0.024-0.005
			c0.735-0.16,1.485-0.321,2.24-0.483c0.033-0.008,0.066-0.015,0.1-0.021c0.213-0.045,0.427-0.09,0.639-0.136
			c0.071-0.015,0.14-0.028,0.21-0.042c0.206-0.044,0.412-0.088,0.618-0.132c0.069-0.013,0.14-0.027,0.208-0.043
			c0.208-0.043,0.418-0.085,0.627-0.13c0.056-0.01,0.113-0.022,0.17-0.035c0.955-0.196,1.896-0.387,2.8-0.562
			c0.062-0.012,0.126-0.024,0.186-0.037c0.187-0.036,0.368-0.069,0.55-0.105c0.076-0.015,0.152-0.028,0.228-0.042
			c0.174-0.034,0.345-0.064,0.513-0.098c0.084-0.017,0.167-0.033,0.25-0.047c0.163-0.029,0.324-0.059,0.48-0.087
			c0.02-0.004,0.037-0.008,0.055-0.011l0.232,1.791c0,0,0.055,0.377,0.174,0.469c0.133,0.103,0.562,0.038,0.562,0.038l3.21-0.413
			c0,0,0.45-0.073,0.556-0.209c0.11-0.146,0.03-0.604,0.03-0.604l-0.227-1.752c7.87-0.922,17.045-1.169,19.229-1.215
			c0.01,0,0.018-0.001,0.027-0.001c0.295-0.007,0.456-0.01,0.456-0.01l2.68-0.704C133.615,10.465,121.202,8.499,108.904,10.184z
			 M109.262,14.311c-0.521,0.068-0.995-0.299-1.062-0.819c-0.068-0.517,0.299-0.993,0.816-1.061c0.52-0.067,0.995,0.299,1.063,0.818
			C110.146,13.769,109.779,14.243,109.262,14.311z"/>
		<polygon fill="#FCF6F3" points="114.072,38.088 111.341,15.23 107.301,15.754 110.373,38.569 		"/>
		<path fill="#FCF6F3" d="M117.237,67.357c0.019,0.142-0.082,0.27-0.222,0.288l-1.797,0.235c-0.143,0.018-0.271-0.082-0.29-0.226
			l0,0c-0.019-0.139,0.083-0.269,0.223-0.288l1.797-0.231C117.09,67.118,117.218,67.218,117.237,67.357L117.237,67.357z"/>
		<path fill="#FCF6F3" d="M134.795,118.392c0.148-0.521,0.462-1.033,0.264-1.632c-0.617,0.063-1.354,0.173-2.082,0.215l-1.854,3.146
			c0.589-0.153,1.221-0.228,1.79-0.442c0.531,1.407,1.73,0.229,2.685,0.116c0.788-0.094,1.835,0.187,2.675,0.662
			c0.429-0.577,0.461-1.341,0.362-2.229C137.295,118.397,135.652,118.328,134.795,118.392z"/>
		<path fill="#FCF6F3" d="M103.021,93.953l-5.228,3.991l6.39,3.126c0.351-0.265,0.771-0.507,1.167-0.761l-0.135-2.486
			c-0.309,0.144-0.617,0.253-0.918,0.305C104.18,96.945,103.707,95.263,103.021,93.953z"/>
		<path fill="#FCF6F3" d="M119.081,105.491c-0.114-0.085-0.261-0.203-0.429-0.337c-0.37-0.299-1.498-1.206-1.837-1.186
			c-0.12,0.133-0.526,1.103-0.724,1.568c-0.148,0.354-0.279,0.656-0.363,0.8c-0.299,0.509-0.668,0.968-1.023,1.41
			c-0.154,0.192-0.303,0.38-0.445,0.567c0.117,0.048,0.234,0.095,0.353,0.145c2.394,1.014,4.035,2.273,5.407-0.968l0.457-1.081
			C120.014,106.135,119.553,105.842,119.081,105.491z"/>
		<path fill="#FCF6F3" d="M128.289,109.084c-0.404-0.298-0.911-0.498-1.401-0.692c-0.315-0.125-0.63-0.263-0.931-0.42
			c-0.037,0.076-0.08,0.144-0.131,0.199c-0.523,0.553-1.671,0.31-3.115-0.064c-0.193-0.051-0.362-0.094-0.491-0.123
			c-0.488-0.105-0.954-0.177-1.413-0.232l0.23,9.812c0.084,3.519,2.498,3.408,5.096,3.348c2.6-0.062,4.396-0.051,4.314-3.569
			l-0.15-6.372C129.689,110.302,128.842,109.488,128.289,109.084z"/>
		<path fill="#FCF6F3" d="M70.381,69.113c0.303,0.165,0.598,0.338,0.884,0.514c0.475,0.29,0.924,0.565,1.4,0.768
			c0.129,0.056,0.399,0.127,0.714,0.216c0.614,0.171,1.073,0.312,1.423,0.448c0.265-0.24,0.518-0.527,0.774-0.849
			c0.358-0.448,0.729-0.912,1.208-1.27c0.413-0.31,1.087-0.711,1.766-1.069l-4.341-1.217C71.458,65.884,70.878,67.237,70.381,69.113
			z"/>
		<path fill="#FCF6F3" d="M85.238,73.033c-1.111-0.697-2.178-1.367-2.992-1.886l-2.424,2.214l0.573,1.688
			c1.131,3.333,3.404,2.506,5.865,1.671c1.157-0.393,2.144-0.72,2.754-1.299C88.151,74.863,86.583,73.878,85.238,73.033z"/>
		<path fill="#FCF6F3" d="M87.021,77.226c-1.867,1.519-2.912,2.369-3.519,2.841c0.502,0.483,1.326,0.757,2.692,0.757h3.888
			c0.016-0.705-0.005-1.461,0.165-2.073c0.11-0.398,0.33-0.631,0.608-0.776l-1.248-2.846C88.865,75.726,87.938,76.479,87.021,77.226
			z"/>
		<path fill="#FCF6F3" d="M89.922,82.586l0.051,0.229c0.534,2.411,3.263,2.685,5.902,2.948c0.095,0.01,0.181,0.021,0.274,0.03
			c-0.008-0.351-0.018-0.714-0.018-1.086c0-2.599,0.521-4.602-2.999-4.602h-1.499c-0.442,0.799-1.044,1.594-1.635,2.372
			c-0.028,0.036-0.052,0.07-0.08,0.106L89.922,82.586z"/>
		<path fill="#FCF6F3" d="M99.151,94.391c2.517-0.862,5.345-1.818,7.18,0.191c0.081-0.405,0.15-0.797,0.19-1.161
			c0.048-0.443,0.144-0.923,0.243-1.431c0.32-1.613,0.646-3.269-0.337-4.249l-6.107,2.804c-2.402,1.103-2.212,2.389-1.51,3.962
			C98.924,94.468,99.035,94.431,99.151,94.391z"/>
		<path fill="#FCF6F3" d="M98.428,88.722c0.064-0.441,0.125-0.859,0.121-1.22l-0.01-0.83c-0.008-0.412-0.011-0.804-0.008-1.195
			c-0.871-0.281-2.315,0.166-3.59,0.562c-0.486,0.15-0.956,0.297-1.383,0.4c-0.207,0.051-0.442,0.104-0.698,0.162
			c-0.66,0.149-1.484,0.336-2.24,0.576c0.113,0.202,0.229,0.407,0.342,0.619c1.225,2.293,1.709,4.305,4.814,2.646l2.606-1.393
			C98.398,88.94,98.412,88.831,98.428,88.722z"/>
		<path fill="#FCF6F3" d="M85.125,69.866l0.602,0.119c1.132,0.222,2.045,0.247,3.104,0.277l0.838,0.026
			c0.351,0.014,0.732,0.08,1.11,0.151l-3.496-7.323c-1.516-3.177-3.675-2.087-6.021-0.968c-2.347,1.12-3.99,1.846-2.475,5.022
			l0.96,2.01C81.516,69.152,83.415,69.526,85.125,69.866z"/>
		<path fill="#FCF6F3" d="M98.016,82.388c0.13,0.222,0.25,0.428,0.357,0.605c0.221,0.363,0.493,0.755,0.773,1.159
			c0.813,1.171,1.642,2.379,1.731,3.479c0.394-0.102,0.802-0.194,1.261-0.268l0.609-0.095c1.569-0.245,3.301-0.52,4.805-1.047
			l-6.389-6.249c-2.025-1.981-3.182-1.105-4.503,0.279C97.164,80.945,97.627,81.723,98.016,82.388z"/>
		<path fill="#FCF6F3" d="M70.561,61.661c0.567,1.585,0.415,2.747,0.239,4.091c-0.021,0.162-0.042,0.341-0.063,0.512
			c0.058-0.031,0.123-0.061,0.178-0.093c0.621-0.355,1.344-0.67,2.109-1.003c0.731-0.318,1.474-0.644,2.127-1.007l-4.629-2.599
			C70.534,61.596,70.55,61.629,70.561,61.661z"/>
		<path fill="#FCF6F3" d="M70.898,56.197c-0.051-0.104-0.081-0.17-0.083-0.175c-0.136-0.316-0.256-0.616-0.371-0.901
			c-0.494-1.232-0.85-2.122-1.939-3.069c-0.126-0.109-0.265-0.218-0.406-0.328c-0.192-0.15-0.397-0.313-0.589-0.492h-2.748
			c-3.52,0-3.467,2.416-3.467,5.016c0,2.599-0.052,4.396,3.467,4.396h4.485c-0.418-1.577,0.708-3.143,1.648-4.442
			C70.896,56.199,70.897,56.198,70.898,56.197z"/>
		<path fill="#FCF6F3" d="M55.83,46.084c0.114,1.68-0.35,2.756-0.886,4.001c-0.065,0.149-0.133,0.316-0.2,0.475
			c0.064-0.014,0.135-0.024,0.197-0.041c0.695-0.172,1.476-0.277,2.303-0.39c0.791-0.106,1.593-0.217,2.321-0.389l-3.746-3.762
			C55.821,46.013,55.828,46.05,55.83,46.084z"/>
		<path fill="#FCF6F3" d="M96.227,78.48c0.506-0.267,0.984-0.52,1.356-0.795l0.856-0.641c0.424-0.318,0.829-0.619,1.238-0.911
			c-0.334-1.121-1.84-2.287-3.169-3.315c-0.507-0.393-0.998-0.771-1.413-1.137c-0.202-0.178-0.426-0.384-0.671-0.604
			c-0.63-0.575-1.419-1.293-2.213-1.898c-0.128,0.271-0.259,0.546-0.397,0.824c-1.505,3.012-3.25,5.038,0.713,7.018l3.326,1.661
			C95.978,78.615,96.101,78.547,96.227,78.48z"/>
		<path fill="#FCF6F3" d="M83.139,88.232c-0.061,0.098-0.101,0.159-0.104,0.164c-0.196,0.283-0.386,0.544-0.566,0.793
			c-0.781,1.073-1.345,1.848-1.569,3.273c-0.025,0.165-0.043,0.341-0.062,0.519c-0.025,0.243-0.055,0.503-0.104,0.761l1.461,2.327
			c1.871,2.981,3.889,1.652,6.091,0.271c2.201-1.381,3.751-2.293,1.88-5.273l-2.384-3.799c-1.113,1.192-3.038,1.07-4.639,0.965
			C83.142,88.233,83.14,88.232,83.139,88.232z"/>
		<path fill="#FCF6F3" d="M65.857,115.991l-0.38,0.481c-0.715,0.906-1.154,1.707-1.665,2.635l-0.405,0.733
			c-0.172,0.307-0.406,0.615-0.642,0.919l8.111,0.234c3.52,0.103,3.536-2.316,3.611-4.914c0.075-2.601,0.18-4.393-3.338-4.495
			l-2.226-0.063C68.14,113.107,66.939,114.626,65.857,115.991z"/>
		<path fill="#FCF6F3" d="M98.158,111.639c-0.105,0.049-0.172,0.079-0.177,0.082c-0.317,0.132-0.618,0.249-0.905,0.36
			c-1.237,0.48-2.13,0.827-3.089,1.906c-0.11,0.125-0.221,0.264-0.333,0.402c-0.152,0.191-0.317,0.394-0.498,0.585l-0.029,2.747
			c-0.038,3.52,2.379,3.492,4.978,3.521c2.599,0.027,4.396,0.098,4.434-3.421l0.047-4.484c-1.581,0.401-3.135-0.742-4.424-1.696
			C98.159,111.641,98.158,111.639,98.158,111.639z"/>
		<path fill="#FCF6F3" d="M120.291,118.343l-0.059-0.228c-0.608-2.394-3.344-2.582-5.99-2.765c-0.096-0.007-0.182-0.015-0.275-0.021
			c0.019,0.351,0.04,0.713,0.052,1.085c0.081,2.598-0.378,4.615,3.14,4.507l1.498-0.047c0.418-0.812,0.994-1.625,1.561-2.422
			c0.026-0.037,0.05-0.071,0.076-0.108L120.291,118.343z"/>
		<path fill="#FCF6F3" d="M86.984,117.037c-0.248-0.068-0.478-0.133-0.679-0.186c-0.411-0.107-0.878-0.199-1.362-0.295
			c-1.398-0.275-2.834-0.566-3.664-1.295c-0.213,0.347-0.441,0.697-0.72,1.069l-0.372,0.492c-0.957,1.268-2.01,2.668-2.724,4.095
			l8.937,0.045c2.833,0.014,3.055-1.42,3.041-3.334C88.599,117.48,87.725,117.245,86.984,117.037z"/>
		<path fill="#FCF6F3" d="M91.475,115.002c0.475-0.165,0.926-0.471,1.363-0.766c0.282-0.189,0.572-0.371,0.872-0.53
			c-0.042-0.074-0.073-0.147-0.09-0.221c-0.161-0.744,0.688-1.554,1.812-2.535c0.151-0.131,0.282-0.246,0.378-0.336
			c0.363-0.343,0.685-0.687,0.99-1.034l-8.229-5.351c-2.951-1.918-4.223,0.137-5.64,2.316c-1.417,2.179-2.44,3.656,0.51,5.575
			l5.344,3.474C89.679,115.471,90.83,115.23,91.475,115.002z"/>
		<path fill="#FCF6F3" d="M81.127,110.483l-0.217-0.09c-2.281-0.948-4.072,1.128-5.804,3.137c-0.062,0.072-0.121,0.137-0.182,0.207
			c0.292,0.195,0.595,0.396,0.899,0.609c2.127,1.493,3.468,3.069,5.489,0.189l0.86-1.228c-0.4-0.821-0.705-1.77-1.003-2.7
			c-0.014-0.044-0.027-0.083-0.041-0.127L81.127,110.483z"/>
		<path fill="#FCF6F3" d="M103.499,114.206c0.028,0.501,0.198,1.019,0.362,1.52c0.104,0.323,0.2,0.653,0.271,0.985
			c0.082-0.021,0.16-0.031,0.236-0.027c0.76,0.05,1.305,1.088,1.94,2.438c0.084,0.181,0.159,0.339,0.22,0.456
			c0.229,0.443,0.472,0.847,0.723,1.235l7.402-6.443c2.654-2.312,1.027-4.099-0.68-6.06c-1.707-1.96-2.847-3.35-5.502-1.039
			l-4.807,4.186C103.541,112.35,103.456,113.522,103.499,114.206z"/>
		<path fill="#FCF6F3" d="M95.677,106.3c0.063,0.097,0.102,0.158,0.106,0.163c0.175,0.296,0.333,0.578,0.483,0.846
			c0.648,1.158,1.117,1.994,2.319,2.793c0.14,0.092,0.292,0.182,0.444,0.272c0.211,0.124,0.435,0.26,0.649,0.412l2.724-0.355
			c3.49-0.455,3.126-2.844,2.791-5.422c-0.336-2.576-0.518-4.366-4.007-3.911l-4.447,0.58c0.618,1.51-0.297,3.207-1.062,4.618
			C95.679,106.298,95.677,106.299,95.677,106.3z"/>
		<path fill="#FCF6F3" d="M88.01,98.222l-0.451,0.416c-0.847,0.784-1.405,1.507-2.054,2.344l-0.515,0.662
			c-0.218,0.275-0.497,0.544-0.777,0.808l7.977,1.491c3.461,0.647,3.852-1.739,4.33-4.293c0.479-2.557,0.861-4.312-2.6-4.959
			l-2.189-0.409C90.713,95.727,89.292,97.041,88.01,98.222z"/>
		<path fill="#FCF6F3" d="M68.92,107.337c0.292-0.688,0.873-1.252,1.744-1.717c0.042-2.386,0.318-4.17-3.003-4.17H55.666
			c-3.52,0-3.467,2.418-3.467,5.017c0,2.6-0.053,4.396,3.467,4.396H67.66c0.653,0,1.167-0.077,1.57-0.218
			C68.799,109.577,68.449,108.448,68.92,107.337z"/>
		<path fill="#FCF6F3" d="M75.213,99.99c0.577-0.87,1.532-1.459,2.638-2.143l0.16-0.098c0.193-0.119,0.387-0.238,0.583-0.356
			c-0.007-0.426-0.023-0.873-0.023-1.333c0-2.6,0.521-4.602-2.999-4.602H63.576c-3.52,0-3.467,2.418-3.467,5.016
			c0,2.601-0.053,4.396,3.467,4.396h11.054L75.213,99.99z"/>
		<path fill="#FCF6F3" d="M81.66,88.602c0.203-0.279,0.375-0.517,0.553-0.773l0.373-0.596l0.625,0.002
			c0.45,0.03,0.926,0.062,1.402,0.062c1.228,0,1.98-0.219,2.439-0.711l0.887-0.95l1.613,2.57c0.035-0.675-0.014-1.438-0.014-2.24
			c0-2.6,0.52-4.603-2.999-4.603H74.543c-3.52,0-3.467,2.419-3.467,5.017c0,2.601-0.052,4.396,3.467,4.396h5.794
			C80.677,89.958,81.145,89.31,81.66,88.602z"/>
		<path fill="#FCF6F3" d="M71.177,106.133c0.063,0.097,0.102,0.158,0.106,0.163c0.175,0.296,0.333,0.578,0.483,0.846
			c0.648,1.158,1.117,1.994,2.319,2.793c0.139,0.092,0.292,0.182,0.445,0.272c0.211,0.124,0.434,0.26,0.649,0.412l2.724-0.355
			c3.49-0.455,3.125-2.844,2.791-5.422c-0.336-2.576-0.518-4.366-4.007-3.911l-4.447,0.58c0.618,1.51-0.297,3.207-1.062,4.618
			C71.179,106.131,71.177,106.132,71.177,106.133z"/>
		<path fill="#FCF6F3" d="M78.055,99.988c0.303,0.165,0.598,0.338,0.884,0.514c0.475,0.29,0.924,0.565,1.4,0.768
			c0.129,0.056,0.399,0.127,0.714,0.216c0.614,0.171,1.073,0.312,1.423,0.448c0.265-0.24,0.518-0.527,0.774-0.849
			c0.358-0.448,0.729-0.912,1.208-1.27c0.413-0.31,1.087-0.711,1.766-1.069l-4.341-1.217C79.131,96.759,78.551,98.112,78.055,99.988
			z"/>
		<path fill="#FCF6F3" d="M65.583,114.11c0.031-0.347,0.06-0.675,0.043-0.961l-0.04-0.657c-0.021-0.326-0.039-0.637-0.051-0.946
			c-0.656-0.256-1.707,0.042-2.635,0.306c-0.354,0.101-0.696,0.199-1.007,0.264c-0.151,0.033-0.323,0.065-0.511,0.102
			c-0.482,0.094-1.085,0.209-1.635,0.37c0.091,0.165,0.185,0.331,0.277,0.503c0.994,1.862,1.43,3.473,3.664,2.279l1.875-1.001
			C65.57,114.282,65.575,114.196,65.583,114.11z"/>
		<path fill="#FCF6F3" d="M111.021,47.609l-0.875-5.912c-0.784,0.736-1.316,1.791-1.146,2.928
			C109.185,45.854,110.033,46.688,111.021,47.609z"/>
		<path fill="#FCF6F3" d="M152.5,81.936c-0.57-4.499-2.013-8.824-1.625-17.311c0,0,0-0.023,0.001-0.057c0-0.013,0-0.015,0.001-0.034
			c0-0.051,0.001-0.121,0.002-0.215c0-0.008,0-0.017,0-0.024c0-0.091,0-0.199-0.001-0.323c0-0.014,0-0.024-0.001-0.038
			c0-0.13-0.002-0.274-0.006-0.434c0-0.028,0-0.057-0.001-0.087c-0.007-0.33-0.02-0.713-0.04-1.135
			c-0.002-0.04-0.004-0.079-0.006-0.119c-0.012-0.208-0.023-0.423-0.039-0.646c-0.003-0.037-0.006-0.074-0.009-0.111
			c-0.015-0.202-0.031-0.408-0.05-0.618c-0.004-0.042-0.008-0.083-0.012-0.125c-0.021-0.229-0.046-0.463-0.074-0.698
			c-0.006-0.057-0.014-0.112-0.02-0.168c-0.029-0.235-0.061-0.472-0.096-0.708c-0.251-1.667-0.678-3.321-1.4-4.334
			c-1.458-2.042-4.24-3.612-6.037-3.627c-0.551-0.01-4.498-0.09-6.463,0.377c-0.602,0.145-1.27,2.183-4.625,1.5
			c-2.95-0.6-7.625-2-7.625-2c-3.5-2.25-4.018-3.002-7.625-7.125c-0.531-0.607-1.027-1.109-1.506-1.553l1.26,11.045
			c0.922,0.999,1.812,1.948,2.621,2.758c2.121,2.121,5.452,2.132,12.686,7.076l0,0c0.058,0.039,0.11,0.072,0.168,0.112
			c0.279,0.47,0.699,2.271,0.875,3.062c2.334-0.501,8.312-3.75,8.312-3.75C138,64.438,133.75,67.384,130.438,67
			c-0.244-0.028-0.493-0.078-0.746-0.146c-0.118-0.031-0.239-0.079-0.359-0.118c-0.139-0.046-0.275-0.083-0.416-0.138
			c-0.094-0.037-0.191-0.086-0.287-0.126c-0.17-0.073-0.338-0.142-0.512-0.226c-0.064-0.031-0.13-0.07-0.195-0.103
			c-0.206-0.105-0.413-0.211-0.623-0.329c-0.02-0.011-0.04-0.023-0.06-0.035c-3.269-1.853-6.907-5.152-9.924-5.519
			c-0.009-0.001-0.019-0.004-0.027-0.005l0,0c-0.013-0.001-0.025-0.006-0.038-0.007c-1.447-0.156-3.204,1.904-2.5,3.125
			c0.966,1.675,2.416,3.18,3.988,4.47c0.031,0.025,0.062,0.052,0.092,0.076c0.303,0.246,0.607,0.486,0.916,0.716
			c2.736,2.033,9.205,5.474,11.349,5.778c0.914,0.13,1.96,0.083,3.155-0.29c0.891-0.278,8.897-3.797,10.375-5
			c0.006,0.086-0.556,0.512-0.625,0.562c-2.562,1.875-5.75,3.562-9.562,4.875c0.063,1.496,0.059,4.303-0.209,5.501
			c-2.42,1.081-5.378,1.614-7.976,2.451c-1.003,0.323-2.543,0.71-3.919,1.569c-1.334,0.833-3.5,2.333-7.953,6.797
			c-2.439,2.447-4.915,4.746-5.881,6.578c-1.574,2.987-0.693,5.304,1.087,6.362c2.027,1.208,3.929-0.577,6.101-2.259
			c1.924-1.489,4.938-5.625,9.854-9.37c3.459-0.399,11.051-0.355,13.021,0.12c1.248,0.301,2.211,2.335,2.471,2.691
			c0.758,1.035,1.512,5.15,1.512,5.15c0.855,6.311,1.285,12.885,1.363,15.854c0.059,2.826,1.99,4.727,4.453,4.727
			c2.16,0,4.186-1.539,4.371-4.91c0.236-4.369,0.32-11.451,0.332-19.057l0,0V96.59c0-0.092,0.002-0.182,0.002-0.273h-0.002
			C153.064,96.316,153.199,87.445,152.5,81.936z"/>
		<path fill="#FCF6F3" d="M114.348,66.686c0,0,0.051,0.46,0.186,0.562c0.124,0.093,0.526,0.036,0.526,0.036l1.62-0.21
			c-1.096-1.079-1.979-2.182-2.623-3.3c-0.402-0.698-0.348-1.594,0.151-2.457c0.464-0.805,1.429-1.655,2.489-1.833l-2.365-20.771
			c0,0-0.008-0.241-0.085-0.302c-0.065-0.051-0.296-0.039-0.296-0.039l-3.418,0.443c0,0-0.197,0.038-0.242,0.099
			c-0.057,0.075-0.004,0.313-0.004,0.313L114.348,66.686z"/>
	</g>
</g>
<g id="carpeter" display="none">
	<path display="inline" fill="#FCF6F3" d="M115.838,49.723c4.705,0,8.525-3.812,8.525-8.518c0-4.703-3.82-8.518-8.525-8.518
		c-4.707,0-8.52,3.814-8.52,8.518C107.318,45.91,111.131,49.723,115.838,49.723z"/>
	<g display="inline">
		<g>
			<path fill="#FCF6F3" d="M69.274,102.751h-5.552v-9.408l5.144,1.353c0,0,0.305,0.078,0.373,0.168
				c0.061,0.079,0.059,0.342,0.059,0.342L69.274,102.751z"/>
			<polygon fill="#FCF6F3" points="39.808,94.373 39.917,94.386 40.02,92.928 38.394,92.873 38.394,92.881 34.166,120.47 
				36.618,120.47 			"/>
			<circle fill="#FCF6F3" cx="47.874" cy="94.182" r="3.033"/>
			<path fill="#FCF6F3" d="M48.595,92.776l8.481-10.771c0,0,0.08-0.113,0.133-0.116c0.046-0.004,0.134,0.075,0.134,0.075
				l1.125,1.083c0,0,0.074,0.076,0.076,0.116c0.001,0.045-0.084,0.126-0.084,0.126l-9.547,10.278L48.595,92.776z"/>
			<g>
				<path fill="#FCF6F3" d="M58.583,83.156"/>
				<path fill="#FCF6F3" d="M57.209,81.834"/>
				<path fill="#FCF6F3" d="M48.595,92.776"/>
				<path fill="#FCF6F3" d="M48.912,93.567"/>
				<g>
					<path fill="#FCF6F3" d="M50.665,92.146c0.416,0.566,0.667,1.261,0.676,2.014l6.052,0.035l0.028-9.32L50.665,92.146z"/>
					<path fill="#FCF6F3" d="M55.062,84.05c-1.439-0.447-3.156-0.808-4.021-0.789c-0.827,0.021-4.074-0.179-7.666,2.434
						c-3.488,2.534-4.781,6.013-4.943,6.864l1.929,0.063l-0.105,1.476l4.115,0.022c0.043-1.886,1.588-3.405,3.484-3.405
						c0.591,0,1.148,0.147,1.637,0.409L55.062,84.05z"/>
				</g>
			</g>
			<path fill="#FCF6F3" d="M64.502,110.216c-3.036,0-5.497,2.463-5.497,5.496c0,3.036,2.461,5.497,5.497,5.497
				s5.497-2.461,5.497-5.497C69.999,112.679,67.538,110.216,64.502,110.216z M62.226,114.618c-0.059,0.142-0.221,0.209-0.362,0.15
				l-1.355-0.56c-0.142-0.058-0.209-0.219-0.151-0.361c0.059-0.142,0.221-0.21,0.363-0.151l1.355,0.559
				C62.217,114.313,62.285,114.476,62.226,114.618z M63.84,118.215l-0.56,1.355c-0.058,0.142-0.221,0.209-0.362,0.15
				c-0.142-0.058-0.209-0.221-0.151-0.361l0.561-1.356c0.058-0.143,0.22-0.208,0.362-0.15S63.898,118.073,63.84,118.215z
				 M64.483,116.413c-0.405,0-0.734-0.33-0.734-0.732c0-0.407,0.329-0.734,0.734-0.734c0.405,0,0.734,0.327,0.734,0.734
				C65.217,116.083,64.888,116.413,64.483,116.413z M66.439,112.192l-0.558,1.356c-0.059,0.142-0.222,0.209-0.363,0.151
				c-0.142-0.059-0.209-0.221-0.151-0.362l0.56-1.356c0.059-0.142,0.221-0.209,0.363-0.15
				C66.431,111.889,66.499,112.053,66.439,112.192z M68.322,117.546l-1.355-0.56c-0.142-0.059-0.209-0.219-0.15-0.361
				c0.059-0.144,0.22-0.211,0.362-0.151l1.356,0.558c0.142,0.06,0.208,0.222,0.15,0.364
				C68.626,117.537,68.464,117.604,68.322,117.546z"/>
			<path fill="#FCF6F3" d="M68.616,103.332h-4.867v6.472c0.268-0.038,0.538-0.062,0.814-0.062c0.342,0,0.677,0.03,1.002,0.085
				L68.616,103.332z"/>
			<g>
				<circle fill="#FCF6F3" cx="80.807" cy="82.892" r="2.457"/>
				<g>
					<path fill="#FCF6F3" d="M80.807,85.826c-1.252,0-2.32-0.791-2.74-1.897l-12.082,26.006c2.354,0.604,4.149,2.605,4.443,5.066
						l11.537-29.414C81.609,85.74,81.218,85.826,80.807,85.826z"/>
				</g>
			</g>
			<path fill="#FCF6F3" d="M35.494,109.729l0.981-6.397c-0.384,0.303-0.749,0.631-0.869,0.872c-0.597,1.189-0.98,4.158-0.317,5.312
				C35.327,109.582,35.401,109.654,35.494,109.729z"/>
			<path fill="#FCF6F3" d="M51.328,94.478c-0.142,1.795-1.644,3.214-3.474,3.214c-1.844,0-3.354-1.439-3.476-3.254l-4.213-0.023
				l-0.467,3.884h15.867c0.001,0,0.001,0,0.001,0c0.569,0,0.71,0.12,0.763,0.164c0.193,0.162,0.211,0.48,0.206,0.658l0,4.354
				c0.024,0.24,0.012,0.598-0.192,0.771c-0.113,0.096-0.278,0.137-0.535,0.137c-0.131,0-0.253-0.01-0.3-0.015h-16.54l-0.095,0.789
				h18.486l0.032-10.643L51.328,94.478z"/>
			<path fill="#FCF6F3" d="M56.218,103.474v-4.366c0,0,0.01-0.316-0.093-0.402c-0.116-0.098-0.561-0.09-0.561-0.09H39.646
				l-0.665,5.434h16.543c0,0,0.491,0.056,0.613-0.047C56.259,103.9,56.218,103.474,56.218,103.474z"/>
			<circle fill="#FCF6F3" cx="53.747" cy="118.858" r="1.506"/>
			<path fill="#FCF6F3" d="M60.433,120.072c0,0.22-0.178,0.396-0.396,0.396h-4.07c-0.219,0-0.396-0.177-0.396-0.396l0,0
				c0-0.219,0.178-0.396,0.396-0.396h4.07C60.255,119.676,60.433,119.854,60.433,120.072L60.433,120.072z"/>
			<path fill="#FCF6F3" d="M53.747,116.877c1.093,0,1.983,0.888,1.983,1.981c0,0.116,0.091,0.29,0.191,0.318
				c0.191,0.059,1.163,0.077,1.308-0.069c0.09-0.089,0.091-0.415,0.091-0.415l0.039-13.22H38.835l-0.526,4.374h1.516l-0.106,3.6
				l5.387,0.207l2.322,1.688l9.893-0.117l0.006,0.316l-10,0.12l-2.33-1.693l-5.604-0.217l0.104-3.588h-1.228l-1.239,10.307h14.489
				c0,0,0.566,0.006,0.615-0.162c0.062-0.209-0.034-0.299-0.18-0.605c-0.121-0.256-0.19-0.542-0.19-0.844
				C51.765,117.765,52.654,116.877,53.747,116.877z"/>
			<path fill="#FCF6F3" d="M62.93,85.158c-0.164-0.163-0.766-0.151-0.766-0.151h-4.321v33.656c0,0,0.023,0.261,0.1,0.336
				c0.075,0.075,0.327,0.097,0.327,0.097h0.772c0,0,0.318,0.001,0.337-0.067c0.053-0.185-0.002-0.255-0.097-0.424
				c-0.479-0.857-0.753-1.843-0.753-2.893c0-2.795,1.934-5.143,4.533-5.788V85.812C63.062,85.812,63.096,85.324,62.93,85.158z"/>
		</g>
		<path fill="#FCF6F3" d="M85.195,68.705l-5.362,11.423c0.306-0.107,0.632-0.169,0.974-0.169c1.195,0,2.224,0.719,2.68,1.747
			l4.133-10.763C86.666,70.336,85.854,69.519,85.195,68.705z"/>
	</g>
	<path display="inline" fill="#FCF6F3" d="M183.043,118.792c-5.975-1.598-15.158-8.656-19.613-12.665
		c-8.193-7.371-15.082-18.111-17.277-29.222c-0.418,0.062-0.844,0.05-1.266-0.007c2.154,11.164,8.891,21.681,16.896,29.402
		c4.689,4.523,14.471,11.971,20.928,13.696C183.49,120.206,183.82,119,183.043,118.792z"/>
	<path display="inline" fill="#FCF6F3" d="M141.066,75.287c-4.449,6.7-10.275,11.675-18.266,14.278
		c-12.832,4.183-27.895-6.333-35.035-16.829l-0.576,1.381c6.816,9.535,20.33,19.528,32.175,17.515
		c9.965-1.694,17.434-7.608,22.787-15.685C141.719,75.714,141.346,75.479,141.066,75.287z"/>
	<g display="inline">
		<path fill="#FCF6F3" d="M127.781,96.717L127.781,96.717v-0.178c0-0.092,0.002-0.182,0.002-0.273h-0.002
			c0,0,0.045-3.065-0.059-6.708c-2.598,1.213-5.357,2.071-8.273,2.567c-1.047,0.178-2.137,0.268-3.238,0.268l0,0
			c-3.309,0-6.652-0.805-9.891-2.134c-2.016,4.251-3.959,8.085-4.462,8.967c-0.615,1.079-0.889,2.08-0.903,2.973
			c-0.566,3.961-1.564,10.014-1.825,12.572c-0.343,3.359,1.34,5.179,3.388,5.495c2.332,0.361,4.451-1.232,4.941-4.017
			c0.434-2.395,2.002-9.712,3.336-14.712c1.111-2.193,2.941-5.462,4.633-7.109c0.145,0.237,0.254,0.432,0.322,0.525
			c0.758,1.035,1.512,5.15,1.512,5.15c0.855,6.311,3.445,13.014,4.248,15.873c0.824,2.941,1.99,4.727,4.453,4.727
			c2.16,0,4.725-1.553,4.371-4.91C129.834,111.043,127.77,104.322,127.781,96.717z"/>
		<path fill="#FCF6F3" d="M146.195,70.614c-2.619-1.39-8.537-5.146-13.502-8.672c-1.434-1.02-4.84-4.233-7.256-6.911
			c-0.752-0.833-1.885-2.267-3.396-3.03c-1.643-0.83-3.691-0.925-4.236-0.929c-0.551-0.01-2.613,0.431-4.471,1.221
			c-3.932,1.67-5.268,5.697-5.553,5.969c-0.557,0.536-2.283,4.278-3.178,5.579c-1.875,2.728-4.027,5.287-5.012,4.851
			c-2.238-0.993-7.331-3.146-8.523-3.63c-2.449-1.003-4.584-0.542-5.218,0.944c-0.558,1.303,0.242,3.092,3.096,4.444
			c1.443,0.685,6.417,2.713,8.467,3.626c0.893,0.398,1.833,0.813,2.81,1.243c1.596,0.701,3.569-0.196,5.398-1.893
			c0.18-0.166,3.242-3.407,4.113-4.323c0.357-0.379,0.814-0.923,1.285-1.509c0.158,0.749,0.309,1.567,0.439,2.448
			c0.145,0.984,0.809,5.081-0.125,8.375c-0.58,2.045-2.211,5.82-3.967,9.611c3.404,1.32,6.645,1.977,9.377,1.977
			c2.051,0,4.037-0.309,5.902-0.916c1.744-0.568,3.4-1.262,4.98-2.074c-0.088-1.795-0.215-3.594-0.41-5.131
			c-0.531-4.189-1.016-8.889-0.768-16.366l0.592,0.439c3.328,2.535,10.24,6.831,13.838,8.707l0.051-0.076l0.418,0.285
			c0.055,0.037,0.139,0.09,0.207,0.135c0.402,0.197,0.754,0.358,1.016,0.457c2.639,0.992,4.092,1.486,5.139,0.159
			C148.625,74.462,149.041,72.125,146.195,70.614z"/>
	</g>
</g>
<g id="clearance" display="none">
	<path display="inline" fill="#FCF6F3" d="M156.546,49.347c4.705,0,8.525-3.812,8.525-8.518c0-4.703-3.82-8.518-8.525-8.518
		c-4.707,0-8.52,3.814-8.52,8.518C148.026,45.534,151.839,49.347,156.546,49.347z"/>
	<rect x="72.75" y="92.584" display="inline" fill="#FCF6F3" width="36.667" height="27.332"/>
	<rect x="77.084" y="63.917" display="inline" fill="#FCF6F3" width="27.333" height="27.332"/>
	<g display="inline">
		<g>
			<path fill="#FCF6F3" d="M49.167,106.335"/>
			<g>
				<path fill="#FCF6F3" d="M58.16,105.907c1.925-0.476,2.923-3.023,2.923-5.403c0-0.084-0.008-0.166-0.011-0.25h0.011v-6.169
					c0-2.854,2.313-5.167,5.167-5.167s5.167,2.313,5.167,5.167v15.999c0,2.854-2.313,5.167-5.167,5.167
					c-0.279,0-0.547-0.04-0.813-0.082H32c-0.876,0-1.675-0.353-2.321-0.923c-1.5-0.904-2.512-2.533-2.512-4.412V93.835
					c0-2.854,2.313-5.167,5.167-5.167s5.167,2.313,5.167,5.167v7.729c0.061,1.728,1.296,3.896,2.937,4.396
					C43.708,106.959,56.521,106.312,58.16,105.907z"/>
				<path fill="#FCF6F3" d="M60.583,99.146c0,0-5.542-1.594-11.229-1.469c-5.28,0.116-11.353,1.469-11.353,1.469v2.418
					c0.053,1.487,1.127,3.474,2.583,3.918c1.072,0.327,3.499,0.508,6.832,0.508c4.75,0,9.72-0.345,10.624-0.568
					c1.669-0.412,2.543-2.786,2.543-4.918l-0.028-0.75h0.029V99.146z"/>
			</g>
			<path fill="#FCF6F3" d="M32.334,88.168c3.125,0,5.667,2.542,5.667,5.667v4.8c0.847-0.182,6.46-1.35,11.342-1.457
				c5.274-0.11,10.33,1.199,11.24,1.449v-4.542c0-3.125,2.542-5.667,5.667-5.667c0.035,0,0.069,0.005,0.104,0.005
				c-0.917-6.923-6.512-12.255-13.297-12.255h-7.695c-6.705,0-12.248,5.208-13.263,12.012
				C32.177,88.177,32.254,88.168,32.334,88.168z"/>
			<path fill="#FCF6F3" d="M58.437,115.667c-0.085,0.294-0.145,0.598-0.145,0.919c0,1.841,1.493,3.333,3.333,3.333h0.833
				c1.841,0,3.333-1.492,3.333-3.333c0-0.321-0.06-0.625-0.145-0.919H58.437z"/>
			<path fill="#FCF6F3" d="M32.924,115.667c-0.077,0.281-0.131,0.571-0.131,0.877c0,1.841,1.493,3.333,3.333,3.333h0.833
				c1.841,0,3.333-1.492,3.333-3.333c0-0.306-0.054-0.596-0.131-0.877H32.924z"/>
		</g>
	</g>
	<g display="inline">
		<rect x="91.916" y="35.75" fill="#FCF6F3" width="2.5" height="24.167"/>
		<rect x="87.583" y="59.416" fill="#FCF6F3" width="11.167" height="3.667"/>
		<polygon fill="#FCF6F3" points="102.25,48.917 83.916,48.917 88.75,34.25 97.083,34.25 		"/>
	</g>
	<path display="inline" fill="#FCF6F3" d="M168.573,96.341v-0.178c0-0.092,0.002-0.182,0.002-0.273h-0.002
		c0,0,0.045-3.065-0.059-6.708c0.029-0.555,0.074-1.663-0.106-2.717c-0.086-1.736-0.211-3.469-0.4-4.956
		c-0.533-4.189-1.018-8.889-0.77-16.366c0,0,0.021,0.021,0.021,0.016c-0.446-8.721-0.888-9.209-2.297-11.888
		c-0.398-0.758-1.312-1.228-2.14-1.646c-1.646-0.83-3.7-0.925-4.246-0.929c-0.551-0.01-2.617,0.431-4.479,1.221
		c-3.938,1.67-5.278,5.697-5.562,5.969c-0.558,0.536-2.288,4.278-3.185,5.579c-1.879,2.728-4.035,5.287-5.021,4.851
		c-2.242-0.993-7.346-3.146-8.541-3.63c-2.453-1.003-4.593-0.542-5.229,0.944c-0.559,1.303,0.242,3.092,3.102,4.444
		c1.446,0.685,6.431,2.713,8.484,3.626c0.895,0.398,1.837,0.813,2.815,1.243c1.6,0.701,3.577-0.196,5.409-1.893
		c0.18-0.166,3.248-3.407,4.121-4.323c0.359-0.379,0.815-0.923,1.287-1.509c0.158,0.749,0.311,1.567,0.44,2.448
		c0.146,0.984,0.811,5.081-0.125,8.375c-0.581,2.045-2.215,5.82-3.975,9.611c0.047,0.019,0.093,0.033,0.14,0.051
		c-0.37,0.677-0.754,1.408-1.188,2.179c-2.02,4.251-3.967,8.085-4.471,8.967c-0.617,1.079-0.891,2.08-0.906,2.973
		c-0.566,3.961-1.566,10.014-1.828,12.572c-0.344,3.359,1.342,5.179,3.395,5.495c2.336,0.361,4.461-1.232,4.951-4.017
		c0.435-2.395,2.005-9.712,3.343-14.712c1.113-2.193,2.946-5.462,4.642-7.109c0.145,0.237,0.254,0.432,0.323,0.525
		c0.759,1.035,1.514,5.15,1.514,5.15c0.858,6.311,3.454,13.014,4.257,15.873c0.826,2.941,1.994,4.727,4.462,4.727
		c2.165,0,4.734-1.553,4.38-4.91C170.63,110.667,168.562,103.946,168.573,96.341z"/>
	<path display="inline" fill="#FCF6F3" d="M145.416,75.055c-1.756,1.126-3.454,1.42-4.857,0.805c-0.98-0.431-1.924-0.847-2.82-1.246
		c-0.916-0.406-2.416-1.036-3.924-1.669c-1.936-0.812-3.764-1.579-4.582-1.967c-3.716-1.758-4.258-4.191-3.592-5.742
		c0.557-1.305,1.926-2.084,3.661-2.084c0.912,0,1.876,0.204,2.864,0.608c1.223,0.496,6.201,2.597,8.452,3.591
		c0.396-0.146,1.682-1.222,3.907-4.453c0.235-0.341,0.556-0.911,0.891-1.531v-9.782H115.75v27.999h29.666V75.055z"/>
</g>
<g id="plumbing" display="none">
	<path display="inline" fill="#FCF6F3" d="M73.076,100.938"/>
	<path display="inline" fill="#FCF6F3" d="M73.681,92.023c-3.931,0-7.116,3.185-7.116,7.115c0,3.93,3.185,7.113,7.116,7.113
		c3.93,0,7.115-3.184,7.115-7.113C80.795,95.208,77.61,92.023,73.681,92.023z M78.681,98.496h-2.664
		c-0.219-0.794-0.825-1.42-1.606-1.668v-2.681C76.649,94.473,78.393,96.248,78.681,98.496z M73.129,94.13v2.644
		c-0.869,0.201-1.551,0.866-1.785,1.723H68.68C68.974,96.187,70.809,94.384,73.129,94.13z M68.679,99.779h2.664
		c0.234,0.854,0.917,1.521,1.786,1.724v2.645C70.806,103.892,68.974,102.085,68.679,99.779z M74.411,104.13v-2.683
		c0.781-0.248,1.39-0.874,1.606-1.668h2.663C78.393,102.029,76.646,103.805,74.411,104.13z"/>
	<g display="inline">
		<path fill="#FCF6F3" d="M135.214,33.372c0,5.037-4.089,9.118-9.126,9.118s-9.118-4.081-9.118-9.118
			c0-5.034,4.081-9.119,9.118-9.119S135.214,28.338,135.214,33.372z"/>
		<g>
			<path fill="#FCF6F3" d="M102.234,80.042l-1.064-5.205l-5.062-9.134l-5.162-9.318l-3.749-3.479l7.71-4.273
				c0,0,0.053,2.208,1.302,4.461c1.796,3.242,5.322,9.604,5.322,9.604s3.233,5.834,4.983,8.991c1.411,2.549,3.435,4.08,3.431,4.08
				L102.234,80.042z"/>
			<circle fill="#FCF6F3" cx="106.09" cy="77.905" r="4.399"/>
			<g>
				<path fill="#FCF6F3" d="M96.01,41.34c-0.171-0.517-0.394-1.027-0.669-1.522c-1.928-3.48-5.811-5.19-9.521-4.525l4.959,8.947
					L96.01,41.34z"/>
				<path fill="#FCF6F3" d="M89.848,45.508l-0.002-0.006l-3.436,1.905l-5.348-9.651c-2.828,2.781-3.583,7.206-1.567,10.845
					c2.426,4.376,7.938,5.959,12.315,3.533c4.606-2.553,5.13-7.241,4.393-10.146L89.848,45.508z"/>
			</g>
			<g>
				
					<rect x="86.533" y="48.561" transform="matrix(0.8745 -0.485 0.485 0.8745 -13.1803 48.4869)" fill="#FCF6F3" width="1.156" height="2.307"/>
				
					<rect x="87.957" y="47.772" transform="matrix(0.875 -0.4841 0.4841 0.875 -12.619 48.9796)" fill="#FCF6F3" width="1.157" height="2.307"/>
				
					<rect x="89.306" y="47.025" transform="matrix(0.8751 -0.4839 0.4839 0.8751 -12.0888 49.5143)" fill="#FCF6F3" width="1.158" height="2.307"/>
				
					<rect x="90.674" y="46.266" transform="matrix(0.8749 -0.4842 0.4842 0.8749 -11.55 50.1196)" fill="#FCF6F3" width="1.159" height="2.307"/>
				
					<rect x="92.061" y="45.497" transform="matrix(0.8748 -0.4845 0.4845 0.8748 -11.0032 50.7243)" fill="#FCF6F3" width="1.156" height="2.308"/>
			</g>
			<path fill="#FCF6F3" d="M108.39,76.631c0.639,1.156,0.222,2.614-0.933,3.255c-1.157,0.641-2.615,0.221-3.256-0.935
				c-0.641-1.156-0.223-2.611,0.934-3.254C106.292,75.056,107.748,75.476,108.39,76.631z"/>
		</g>
		<path fill="#FCF6F3" d="M134.549,80.999c0.212,0,0.421-0.029,0.625-0.083c1.615-0.397,3.01-2.361,3.151-6.167
			c0.21-5.676,2.871-12.991-0.24-22.39c-0.28-0.852-3.207-5.646-3.938-6.165c-0.656-0.466-1.592-0.775-2.317-0.963l-0.01-0.021
			c-0.033-0.005-0.074-0.005-0.108-0.009c-0.551-0.138-0.958-0.204-0.958-0.204l-0.013,0.119c-1.286-0.067-2.808-0.007-4.435-0.019
			c-0.59-0.011-3.16-0.312-5.262,0.188c-1.762,0.423-3.14,1.655-3.189,1.7c-0.674,0.599-2.276,4.728-3.908,7.459l-0.071-0.052
			c-3.539,4.631-13.239,7.973-16.882,5.778c-3.435-2.071-4.761,1.667-4.761,1.667s-1.692,3.437,4.967,6.292
			c2.845,1.225,6.313,0.696,10.984-0.651c2.433-0.706,4.884-2.18,7.005-3.767c0.003,0.083,0.011,0.167,0.007,0.25
			c-0.26,6.104-0.671,15.055-0.799,24.01v5.807l0.034-0.006l-0.034,3.857c0.128,6.125,0.283,13.744,0.367,16.924
			c0.062,3.023,2.129,5.059,4.767,5.059c2.312,0,4.481-1.646,4.678-5.256c0.259-4.771,0.351-12.559,0.358-20.883l0.244-1.918
			l0.106-0.021l1.139-0.244l0.528,0.129l0.232,6.211c0.129,6.125,0.283,13.744,0.367,16.924c0.064,3.023,2.131,5.059,4.768,5.059
			c2.312,0,4.481-1.646,4.679-5.256c0.254-4.678,0.344-12.26,0.355-20.398h0.001v-0.191c0-0.098,0.001-0.193,0.001-0.293h-0.001
			l-0.067-5.848l-0.078-6.583c-0.72,0.649-1.526,0.94-2.278,0.94c-2.562,0-4.459-2.851-4.516-6.774
			c-0.068-3.877,0.457-11.11-0.268-18.104l-0.029-2.024l0.006-1.017l0.647,0.791c1.536,8.144,0.229,16.346,0.296,20.127
			C130.751,78.58,132.42,80.999,134.549,80.999z"/>
	</g>
	<path display="inline" fill="#FCF6F3" d="M99.185,98.507c-3.833-3.997-11.041-3.479-11.041-3.479v-0.013h-7.629
		c0.531,0.879,0.896,1.867,1.056,2.925c0.008,0.052,0.016,0.103,0.023,0.154c0.044,0.343,0.076,0.689,0.076,1.044
		c0,0.271-0.014,0.54-0.041,0.804c-0.012,0.118-0.035,0.231-0.052,0.348c-0.021,0.144-0.037,0.289-0.065,0.43
		c-0.033,0.163-0.078,0.32-0.12,0.479c-0.024,0.089-0.042,0.18-0.069,0.267c-0.06,0.197-0.132,0.39-0.207,0.58
		c-0.017,0.043-0.03,0.087-0.048,0.13c-1.152,2.801-3.851,4.794-7.033,4.935v1.416h4.689h2.945h6.469l0.005,0.012l0.021,0.006
		v11.069h13.507v-11.459C101.736,106.68,101.788,101.221,99.185,98.507z"/>
	<path display="inline" fill="#FCF6F3" d="M66.578,102.785c-0.007-0.014-0.013-0.027-0.02-0.041c-0.102-0.2-0.197-0.402-0.281-0.612
		c-0.023-0.056-0.041-0.113-0.062-0.17c-0.065-0.174-0.13-0.347-0.184-0.525c-0.029-0.098-0.051-0.199-0.077-0.299
		c-0.037-0.145-0.078-0.287-0.107-0.435s-0.047-0.299-0.068-0.449c-0.015-0.106-0.036-0.211-0.047-0.318
		c-0.026-0.262-0.04-0.527-0.04-0.797c0-0.354,0.031-0.701,0.076-1.043c0.007-0.053,0.016-0.104,0.024-0.156
		c0.159-1.058,0.524-2.045,1.055-2.924h-7.104v0.013c0,0-6.815-0.519-10.439,3.479c-2.459,2.714-2.411,8.173-2.349,9.646v11.459
		h12.769v-11.069l0.019-0.006l0.003-0.012h6.82h2.079h4.433v-1.429C70.237,106.884,67.816,105.191,66.578,102.785z"/>
</g>
<g id="window" display="none">
	<circle display="inline" fill="#FCF6F3" cx="99.604" cy="57.616" r="8.189"/>
	<path display="inline" fill="#FCF6F3" d="M109.325,106.326l-0.282-23.809c0,0,0.684-7.361-2.147-11.781
		c-0.571-0.891-1.31-1.847-2.147-2.492c-1.053-0.813-3.059-0.09-4.951-0.102c-0.529-0.01-2.836-0.282-4.725,0.167
		c-1.581,0.381-2.836,1.474-2.863,1.526c-1.936,3.614-2.298,13.13-2.388,15.244c-0.233,5.479-0.603,13.518-0.717,21.557v5.215
		l0.031-0.006l-0.031,3.461c0.115,5.5,0.254,12.342,0.33,15.195c0.057,2.717,1.913,4.543,4.28,4.543c2.075,0,4.023-1.48,4.2-4.721
		c0.232-4.281,0.314-11.275,0.322-18.748l0.22-1.721l0.095-0.021l1.022-0.217l0.474,0.115l0.21,5.574
		c0.114,5.5,0.254,12.342,0.329,15.195c0.058,2.717,1.913,4.543,4.28,4.543c2.075,0,4.023-1.48,4.2-4.721
		c0.227-4.199,0.31-11.006,0.319-18.312l0,0v-0.174c0-0.088,0.002-0.172,0.002-0.262h-0.002L109.325,106.326z"/>
	<path display="inline" fill="#FCF6F3" d="M96.053,74.192l0.09-3.019l-0.009-3.039c0,0-2.195,0.198-2.907,0
		c-0.899-0.251-2.554-0.969-3.192-1.628c-4.474-4.597-7.143-8.857-9.016-11.175c-2.029-2.526-4.553-3.322-6.069-2.146
		c-1.324,1.034-1.484,3.397,0.78,6.537c2.994,4.147,5.152,10.818,12.567,15.774c0.671,0.448,3.643,4.245,4.451,4.211
		c1.333-0.061,4.834-3.038,4.834-3.038L96.053,74.192z"/>
	<polygon display="inline" fill="#FCF6F3" points="86.229,39.221 86.229,37.608 77.409,37.608 76.052,37.608 67.232,37.608 
		67.232,39.221 74.535,39.221 76.052,40.917 76.052,56.916 77.409,56.916 77.409,40.917 78.927,39.221 	"/>
	<g display="inline">
		<path fill="#FCF6F3" d="M133.614,95.553c-0.145-0.164-0.745-0.082-0.745-0.082h-12.69c0,0-0.591-0.021-0.746,0.162
			c-0.169,0.199-0.045,0.875-0.045,0.875l0.252,0.398l1.845,12.594c0,0,0.159,0.551,0.316,0.684
			c0.138,0.117,0.533,0.133,0.533,0.133h8.779c0,0,0.424-0.014,0.559-0.133c0.197-0.172,0.295-0.908,0.295-0.908l1.428-12.422
			l0.221-0.363C133.615,96.49,133.783,95.744,133.614,95.553z M123.343,98.283c-1.064,0.188-1.569-0.203-1.569-0.203
			s-0.311-0.105-0.382-0.301c-0.043-0.117,0.116-0.564,1.043-0.531c0.73,0.027,1.732-0.076,1.973,0.221
			C124.754,97.893,124.406,98.098,123.343,98.283z"/>
		<path fill="#FCF6F3" d="M119.64,95.59c0,0,0.91-6.025,6.877-6.025c5.9,0,6.878,6.014,6.878,6.014h-0.666
			c0,0-1.216-5.723-6.212-5.615c-5.434,0.115-6.132,5.602-6.132,5.602L119.64,95.59z"/>
	</g>
	<path display="inline" fill="#FCF6F3" d="M125.548,85.348c3.203,1.432,3.354,3.406,3.354,3.406s0.182,5.928-7.322,1.379
		c-2.944-1.785-5.906-3.566-9.382-6.705c-2.143-1.941-6.554-4.175-7.619-5.507c-0.771-0.963,0.222-3.123,0-4.216l1.084-2.337
		l-1.084-3.233c0,0,3.267,1.374,4.669,2.794C113.456,75.187,122.282,83.887,125.548,85.348z"/>
	<g display="inline">
		<polygon fill="#FCF6F3" points="51.64,24.955 51.64,109.248 88.468,109.248 88.468,106.049 54.837,106.049 54.837,28.154 
			141.673,28.154 141.673,106.049 133.168,106.049 132.8,109.248 144.871,109.248 144.871,24.955 		"/>
		<polygon fill="#FCF6F3" points="109.966,106.049 109.966,109.248 120.369,109.248 119.901,106.049 		"/>
	</g>
</g>
<g id="fencing" display="none">
	<path display="inline" fill="#FCF6F3" d="M51.561,121.495h-1.489c-0.166-0.567-0.344-1.21-0.521-1.939
		c-0.598-2.437-0.598-5.258-0.598-5.258s-0.232,2.032-0.901,4.144c-0.627,1.975-1.373,2.963-1.373,2.963s-1.1-2.947-1.509-5.338
		c-0.193-1.109-0.507-1.429-0.978-8.539c0,0-0.491,5.871-0.973,7.846c-0.399,1.631-0.197,2.062-1.838,5.96
		c0,0-1.083-1.331-1.696-3.327c-0.613-1.986-1.262-5.722-1.262-5.722s0.071,7.713-1.737,9.211h-0.365h-0.46v1.667h14.743h0.957
		V121.495z"/>
	<g display="inline">
		<polygon fill="#FCF6F3" points="96.733,121.231 83.923,121.231 83.923,74.213 90.17,67.073 96.733,74.213 		"/>
		<polygon fill="#FCF6F3" points="81.379,121.231 68.576,121.231 68.576,74.213 74.819,67.073 81.379,74.213 		"/>
		<polygon fill="#FCF6F3" points="66.054,121.231 53.249,121.231 53.249,74.213 59.488,67.073 66.054,74.213 		"/>
	</g>
	<path display="inline" fill="#FCF6F3" d="M153.498,50.519c0,4.759-3.863,8.615-8.624,8.615c-4.759,0-8.615-3.856-8.615-8.615
		c0-4.757,3.856-8.617,8.615-8.617C149.635,41.902,153.498,45.762,153.498,50.519z"/>
	<g display="inline">
		
			<rect x="99.824" y="55.036" transform="matrix(0.6279 -0.7783 0.7783 0.6279 -8.1444 100.4171)" fill="#FCF6F3" width="2.237" height="7.379"/>
		<g>
			<path fill="#FCF6F3" d="M118.113,70.171c0.23,0.185,0.267,0.525,0.081,0.754l-1.686,2.086c-0.186,0.229-0.524,0.266-0.755,0.081
				L102.53,62.42c-0.23-0.185-0.267-0.525-0.081-0.754l1.685-2.088c0.186-0.229,0.524-0.266,0.755-0.081L118.113,70.171z"/>
		</g>
		<g>
			<path fill="#FCF6F3" d="M94.424,55.783c-0.185,0.229-0.222,0.511-0.081,0.625c0.142,0.114,0.105,0.395-0.08,0.625l-0.524,0.65
				c-0.185,0.229-0.45,0.326-0.589,0.214c-0.139-0.112-0.404-0.016-0.59,0.214l-0.702,0.87c-0.185,0.229-0.149,0.569,0.081,0.754
				l1.81,1.461c0.229,0.185,0.569,0.149,0.755-0.081l0.702-0.869c0.186-0.229,0.224-0.509,0.085-0.622
				c-0.139-0.112-0.101-0.392,0.084-0.622l0.524-0.65c0.186-0.23,0.448-0.328,0.584-0.218c0.137,0.11,0.4,0.012,0.585-0.218
				l2.022-2.505c0.185-0.229,0.149-0.569-0.081-0.754l-1.809-1.461c-0.229-0.185-0.569-0.149-0.754,0.081L94.424,55.783z"/>
		</g>
		<path fill="#FCF6F3" d="M96.348,53.56c-0.338,0.402,0.451-0.7,0.562-0.847c0.368-0.493,1.33-1.654,2.729-2.427
			c1.882-1.042,3.738-0.432,3.738-0.432s0.144-0.029-0.545,0.249c-3.75,1.513-3.51,4.109-3.51,4.109s0.182,0.547,0.166,0.639
			c-0.025,0.135-0.335,0.505-0.335,0.505l-0.044-0.389l-1.425-0.585L96.348,53.56z"/>
	</g>
	<g display="inline">
		<path fill="#FCF6F3" d="M168.303,113.501c-2.191-3.049-5.709-7.563-9.657-12.526c-0.143-0.182-0.288-0.364-0.433-0.546
			c-0.939-2.308-3.133-7.258-3.136-7.709c-0.032-5.27-0.201-15.873-0.201-15.873s0.718-7.746-2.261-12.398
			c-0.601-0.938-1.377-1.943-2.26-2.623c-1.108-0.854-3.23-0.337-5.21-0.107c-2.414,0.278-4.878-0.526-4.878-0.526l-5.419,2.711
			c-7.457,2.396-15.3,2.137-18.835,2.643c-3.368,0.474-5.44,2.323-5.19,4.318c0.22,1.75,2.263,3.16,6.306,2.805
			c4.723-0.416,10.869,0.804,18.06-1.675c-0.202,1.792-0.331,3.531-0.413,4.927c3.147-0.082,8.662-2.119,10.511-4.539l0.169-0.222
			c0.203,0.387-0.218,0.032-0.011,0.337c-2.66,3.359-8.709,5.961-12.873,5.983c-1.157,0-2.175-0.192-2.917-0.638
			c-0.636-0.383-1.194-0.551-1.682-0.582c-2.054-0.177-2.88,2.157-2.88,2.157s-1.601,3.246,4.693,5.945
			c1.019,0.438,2.124,0.638,3.342,0.649c2.01,0.027,4.33-0.467,7.101-1.266c5.131-1.489,11.295-6.503,12.03-7.263l0.755-0.265
			c-0.058-0.025-0.073-0.034,0.014-0.003l0.005-0.003c0.021,0.01,0.026,0.011,0.044,0.02c0.028,0.011,0.047,0.017,0.092,0.033
			l-0.006,0.006c0.094,0.042,0.062,0.034-0.005,0.006l-0.452,0.481c-1.023,1.092-6.419,6.631-12.103,8.28
			c-2.652,0.764-4.602,1.161-6.282,1.277c-0.072,1.857-0.145,3.814-0.21,5.834c-5.29,1.036-11.227,2.198-13.863,2.732
			c-2.539,0.497-4.04,2.394-3.987,4.567l-0.019,0.01c0.121,5.789,0.269,12.987,0.347,15.989c0.061,2.859,2.014,4.783,4.505,4.783
			c2.183,0,4.233-1.558,4.42-4.967c0.162-3.006,0.254-7.293,0.299-12.138c2.367-0.342,5.122-0.777,8.081-1.263v0.021l0.262-0.065
			c2.336-0.386,4.79-0.802,7.308-1.237l1.853,0.036l4.309,1.284l3.55,4.09c3.722,4.435,8.347,9.953,10.288,12.244
			c1.84,2.189,4.565,2.465,6.507,0.905C169.67,118.773,170.293,116.275,168.303,113.501z"/>
		<path fill="#FCF6F3" d="M153.076,77.231c-0.017-0.005-0.038-0.013-0.049-0.017l-0.014,0.003c0.043,0.018,0.098,0.041,0.144,0.058
			l0.005-0.006C153.142,77.261,153.109,77.246,153.076,77.231z"/>
	</g>
</g>
<g id="gardening" display="none">
	<g display="inline">
		<path fill="#FCF6F3" d="M51.508,36.981c0,5.041,4.104,9.135,9.155,9.135c5.056,0,9.161-4.094,9.161-9.135
			c0-5.053-4.105-9.129-9.161-9.129C55.612,27.852,51.508,31.929,51.508,36.981z"/>
		<path fill="#FCF6F3" d="M105.299,106.812c3.672,0,6.658,2.971,6.658,6.646c0,3.654-2.986,6.621-6.658,6.621
			s-6.644-2.967-6.644-6.621C98.655,109.783,101.627,106.812,105.299,106.812z M105.299,118.451c2.775,0,5.025-2.236,5.025-4.994
			c0-2.773-2.25-5.01-5.025-5.01c-2.762,0-5.014,2.236-5.014,5.01C100.285,116.215,102.537,118.451,105.299,118.451z"/>
		<path fill="#FCF6F3" d="M130.52,107.705c3.471,0,6.287,2.77,6.287,6.195c0,3.416-2.816,6.18-6.287,6.18
			c-3.482,0-6.293-2.764-6.293-6.18C124.227,110.475,127.037,107.705,130.52,107.705z M130.52,118.57c2.615,0,4.738-2.09,4.738-4.67
			c0-2.584-2.123-4.672-4.738-4.672c-2.627,0-4.748,2.088-4.748,4.672C125.771,116.48,127.893,118.57,130.52,118.57z"/>
		<path fill="#FCF6F3" d="M106.021,104.648v-0.008c0-1.492,1.166-2.701,2.646-2.787v-0.043h4.393h5.152h0.195h5.143h4.391v0.043
			c1.475,0.086,2.654,1.295,2.654,2.787v0.008h0.002v1.863c-0.145-0.002-0.271-0.023-0.416-0.023c-3.031,0-5.629,1.824-6.727,4.422
			h-5.047h-0.195h-5.426c-0.986-2.887-3.613-5.014-6.77-5.285v-0.977H106.021z"/>
		<path fill="#FCF6F3" d="M124.162,100.754h-12.117v-0.396l0,0l0,0c0-0.738,0.584-1.332,1.316-1.375v-0.025h2.158h2.539h0.088h2.541
			h2.16v0.025c0.732,0.043,1.314,0.637,1.314,1.375l0,0l0,0V100.754z"/>
		<path fill="#FCF6F3" d="M78.172,70.441c0,0,11.167,12.918,14.893,17.225c3.676,4.262,14.732,17.053,14.732,17.053l1.613-1.377
			L94.625,86.23L79.777,69.058L78.172,70.441z"/>
		<path fill="#FCF6F3" d="M55.025,53.304c0,0-1.62-2.074-2.973-1.326c-2.671,1.504-1.545,5.754-0.68,7.49
			c0.882,1.746,1.996,4.364,4.823,7.518c2.832,3.158,7.413,6.629,16.024,5.332c4.007-0.609,3.938-2.919,2.628-4.036
			c-0.805-0.69-2.367-0.851-2.816-0.735c-1.196,0.329-5.643-0.223-8.53-1.967c-2.838-1.72-4.368-4.022-5.12-5.662
			C57.617,58.289,55.025,53.304,55.025,53.304z"/>
		<path fill="#FCF6F3" d="M35.711,107.818c7.676-5.855,8.381-17.883,8.381-17.883s-0.434-3.912-1.078-10.438
			c-0.988-9.822,0-19.798,0.315-21.1c0.203-0.77,0.329-10.115,8.612-10.762c8.289-0.658,7.961,4.777,7.961,4.777
			s-0.496,2.275-1.084,5.23c-0.919-1.559-1.805-3.24-1.971-3.924c-0.323-1.419-2.188-3.588-3.92-3.695
			c-1.746-0.113-3.816,1.953-3.93,3.047c-0.105,1.082-1.271,5.665,2.102,10.121c2.123,2.793,2.641,3.631,5.667,6.507
			c-0.044,0.415-0.049,0.755-0.031,0.985c0.374,4.376-0.647,7.829,0.881,10.766c1.517,2.932,4.575,7.293,4.794,16.312
			c0.213,9.027,0.652,6.197-0.979,14.246c-1.901,9.361-7.852,6.854-7.852,6.854s-3.367-1.893-1.854-5.008
			c4.028-8.27,0.215-16.748,0.215-16.748s-5.984,13.486-9.479,16.967c-3.705,3.705-7.731,1.828-8.281,1.42
			C31.671,113.641,34.797,108.508,35.711,107.818z"/>
		<rect x="110.645" y="112.045" fill="#FCF6F3" width="14.832" height="2.51"/>
		<path fill="#FCF6F3" d="M80.31,100.055c0,0,2.487-10.256,12.979-5.303c3.131,1.479,8.64,5.174,11.728,7.311
			c-0.416,0.623-0.707,1.326-0.787,2.113l-0.018,0.035v0.906c-3.945,0.52-7.005,3.717-7.306,7.715
			c-3.003,0.133-6.947,0.236-10.729-0.271C76.134,111.201,80.31,100.055,80.31,100.055z"/>
		<rect x="72.962" y="69.074" fill="#FCF6F3" width="6.783" height="2.096"/>
	</g>
	<path display="inline" fill="#FCF6F3" d="M170.74,122.397v-0.818h-3.025c-0.337-1.267-0.699-2.707-1.06-4.34
		c-1.212-5.45-1.212-11.763-1.212-11.763s-0.474,4.545-1.833,9.27c-1.271,4.421-2.786,6.632-2.786,6.632s-2.233-6.595-3.065-11.946
		c-0.392-2.48-1.029-3.196-1.983-19.107c0,0-0.999,13.138-1.978,17.559c-0.812,3.647-0.398,4.611-3.733,13.335
		c0,0-2.201-2.978-3.443-7.446c-1.246-4.443-2.564-12.805-2.564-12.805s0.146,17.263-3.528,20.612h-0.74h-0.935v0.818H170.74z"/>
</g>
<g id="treeFelling" display="none">
	<g display="inline">
		<path fill="#FCF6F3" d="M110.721,98.83l-9.133,3.732c-0.006,4.834,0.025,8.904,0.139,11.411c0.154,3.388,2.18,4.876,4.475,5.002
			c2.906,0.162,4.539-2.141,4.471-5.921C110.625,110.131,110.664,104.074,110.721,98.83z"/>
		<path fill="#FCF6F3" d="M113.104,97.854c0.121,5.804,0.27,13.022,0.348,16.033c0.061,2.866,2.018,4.794,4.516,4.794
			c2.191,0,4.244-1.561,4.434-4.979c0.246-4.521,0.33-11.899,0.338-19.785L113.104,97.854z"/>
		<path fill="#FCF6F3" d="M120.707,37.686c0,4.772-3.877,8.639-8.648,8.639s-8.639-3.867-8.639-8.639
			c0-4.769,3.867-8.639,8.639-8.639S120.707,32.917,120.707,37.686z"/>
		<path fill="#FCF6F3" d="M127.936,72.513L77.452,107.7l1.571,2.495l50.631-20.71l7.238-5.781L127.936,72.513z M124.488,78.66
			l2.982-2.605l6.457,7.373l-3.164,2.31L124.488,78.66z"/>
		<path fill="#FCF6F3" d="M132.977,63.032c-0.059-0.162-0.168-0.322-0.236-0.492h0.061c-0.727-1.745-1.777-3.392-2.904-4.86
			c-0.039-0.046-0.068-0.082-0.107-0.13c-2.885-3.745-6.232-6.313-6.232-6.313s-3.061-2.54-5.307-2.995
			c-1.42-0.289-3.443-0.142-5.631-0.158c-0.559-0.01-2.992-0.296-4.986,0.178c-1.666,0.401-2.973,1.569-3.021,1.611
			c-4.492,3.998-17.028-3.548-17.472-8.603c-0.331-3.785-3.933-2.716-3.933-2.716s-3.574,0.62-2.049,7.314
			c0.651,2.862,2.99,5.222,6.629,8.048c4.797,3.716,13.438,4.798,14.606,4.761c0,0.008-0.022,0.736-0.052,1.952h-0.053
			c-0.104,4.571-0.393,16.591-0.562,28.347l20.93-14.578c-0.062-4.942-0.113-9.133-0.145-11.856h0.055
			c-0.031-1.912-0.049-3.07-0.049-3.194c0.139,0.152,1.146,1.25,2.369,3.04c0.078,0.121,0.154,0.219,0.238,0.345
			c0.701,1.063,1.439,2.326,2.096,3.748c0.006,0.008,0.006,0.019,0.006,0.044c0.314,0.673,0.6,1.39,0.857,2.134
			c0.041,0.139,0.084,0.294,0.131,0.436c0.188,0.625,0.367,1.248,0.498,1.91c0.475,2.213,0.576,4.597-0.037,7.046
			c-0.508,2.026,0.492,3.085,2.697,3.694c2.225,0.61,2.961-2.098,3.58-4.189C135.557,75.466,135.443,69.553,132.977,63.032z"/>
		<g>
			<path fill="#FCF6F3" d="M83.176,110.097c-0.166,5.127-0.269,8.523-0.269,8.523l3.147,0.612c0,0,0.021-3.964,0.074-10.345
				L83.176,110.097z"/>
			<path fill="#FCF6F3" d="M86.179,103.418l-2.855,1.996c-0.021,0.481-0.033,0.972-0.045,1.445l2.881-1.18
				C86.162,104.947,86.164,104.206,86.179,103.418z"/>
			<path fill="#FCF6F3" d="M84.939,64.683c-2.149-3.744-6.014-10.431-7.721-13.152c-5.195-8.266-7.799-15.933-7.799-15.933
				L69,35.842c0,0,2.381,7.422,7.125,15.566c3.728,6.404,7.326,13.112,8.666,15.657c-0.441,8.404-0.971,23.095-1.355,34.661
				l2.793-1.936c0.084-6.778,0.221-14.811,0.428-23.219c1.141-1.435,5.764-7.249,10.416-12.757
				c5.377-6.358,8.838-12.275,8.838-12.275l-0.258-0.229c0,0-3.686,6.11-9.424,12.547c-2.125,2.375-7.379,8.64-9.531,11.209
				c0.111-4.047,0.24-8.153,0.383-12.242c0.197-5.48,0.232-10.744,0.164-15.7c1.299-1.221,5.34-4.973,9.469-8.443
				c5.034-4.219,8.031-8.857,8.031-8.857l-0.314-0.342c0,0-3.207,4.718-8.637,8.862c-1.893,1.442-6.402,5.266-8.589,7.135
				c-0.077-4.078-0.214-7.918-0.396-11.428c1.174-1.117,3.795-3.611,6.414-5.98c3.535-3.184,5.947-6.27,5.947-6.27l-0.134-0.145
				c0,0-2.546,3.171-6.289,6.369c-1.302,1.116-4.431,3.949-5.976,5.357c-0.688-12.691-1.826-21.005-1.826-21.005l-1.139-0.066
				c0,0,1.119,9.064,1.554,22.78c-1.836-2.885-4.798-7.509-6.148-9.464c-4.313-6.216-6.56-12.087-6.56-12.087l-0.32,0.208
				c0,0,2.047,5.697,5.998,11.839c2.963,4.599,5.84,9.423,7.08,11.542c0.086,3.163,0.115,6.542,0.103,10.099
				c-1.993-2.521-5.607-7.173-8.978-11.899c-4.998-6.99-10.661-11.417-10.661-11.417l-0.462,0.355c0,0,5.762,4.716,10.605,12.199
				c2.07,3.195,8.35,11.822,9.468,13.357c-0.057,4.714-0.22,9.679-0.546,14.827C84.939,64.661,84.939,64.676,84.939,64.683z"/>
		</g>
	</g>
</g>
<g id="painting">
	<path fill="#FCF6F3" d="M73.989,30.076c0,4.81,3.898,8.703,8.708,8.703c4.801,0,8.695-3.893,8.695-8.703
		c0-4.807-3.894-8.696-8.695-8.696C77.887,21.38,73.989,25.269,73.989,30.076z"/>
	<path fill="#FCF6F3" d="M113.205,25.784c0,0,1.627-4.87-0.695-5.802c-2.324-0.929-3.951,1.398-3.951,1.398
		S93.011,38.086,89.071,40.403c-3.942,2.321-9.75,4.172-10.67,11.374c-0.938,7.193-3.028,16.947,0,21.814
		c3.006,4.873,3.992,1.872,4.864,5.109c0.734,2.693,5.806,16.241,2.548,22.972c-3.239,6.731-1.606,9.469-1.384,9.981
		c0.389,0.874,4.875,4.401,9.051-3.02c4.183-7.426,0.588-27.488-2.088-34.582c-1.622-4.291-1.347-10.253-0.924-12.292
		c1.853-8.934,0.172-12.55,1.853-13.466C103.689,42.092,113.205,25.784,113.205,25.784z"/>
	<g>
		<rect x="120.553" y="6.053" fill="#FCF6F3" width="4.064" height="1.038"/>
		<rect x="123.799" y="6.053" fill="#FCF6F3" width="0.818" height="6.692"/>
		<rect x="111.398" y="11.736" fill="#FCF6F3" width="12.957" height="1.039"/>
		<rect x="111.338" y="11.763" fill="#FCF6F3" width="1.207" height="11.603"/>
		<path fill="#FCF6F3" d="M110.572,24.668h2.508l0.059-9.05c0,0-0.076-0.443-0.26-0.564c-0.342-0.25-0.205-0.334-0.205-0.334h-1.479
			c0,0-0.258,0.186-0.361,0.287c-0.125,0.125-0.197,0.437-0.197,0.437L110.572,24.668z"/>
		<rect x="102.912" y="3.494" fill="#FCF6F3" width="19.725" height="6.036"/>
	</g>
	<rect x="89.888" y="114.142" fill="#FCF6F3" width="31.231" height="4.458"/>
	<rect x="91.287" y="95.158" fill="#FCF6F3" width="26.574" height="4.463"/>
	<rect x="95.129" y="76.644" fill="#FCF6F3" width="18.189" height="4.459"/>
	<g>
		<path fill="#FCF6F3" d="M95.597,84.081L98.6,65.234h9.931l9.624,57.433h4.473l-10.323-61.603H94.794l-1.948,12.261
			c0.014,0.051,0.032,0.109,0.05,0.164C93.78,75.831,94.801,79.681,95.597,84.081z"/>
		<path fill="#FCF6F3" d="M89.461,122.667l1.387-8.716c-1.172,0.703-2.265,0.923-3.157,0.923c-0.508,0-0.979-0.071-1.426-0.189
			l-1.272,7.982H89.461z"/>
	</g>
</g>
</svg>
