<?xml version="1.0" encoding="utf-8"?>
<!-- Generator: Adobe Illustrator 16.0.0, SVG Export Plug-In . SVG Version: 6.00 Build 0)  -->
<!DOCTYPE svg PUBLIC "-//W3C//DTD SVG 1.1//EN" "http://www.w3.org/Graphics/SVG/1.1/DTD/svg11.dtd">
<svg version="1.1" xmlns="http://www.w3.org/2000/svg" xmlns:xlink="http://www.w3.org/1999/xlink" x="0px" y="0px" width="100%" height="auto" viewBox="0 0 200 160" enable-background="new 0 0 200 160" xml:space="preserve">
<g id="Layer_1">
	<rect x="5.486" y="121.448" fill="#FCF6F3" width="189.027" height="2.151"/>
</g>
<g id="plumbing">
	<path fill="#FCF6F3" d="M73.076,100.938"/>
	<path fill="#FCF6F3" d="M73.681,92.023c-3.931,0-7.116,3.185-7.116,7.115c0,3.93,3.185,7.113,7.116,7.113
		c3.93,0,7.115-3.184,7.115-7.113C80.795,95.208,77.61,92.023,73.681,92.023z M78.681,98.496h-2.664
		c-0.219-0.794-0.825-1.42-1.606-1.668v-2.681C76.649,94.473,78.393,96.248,78.681,98.496z M73.129,94.13v2.644
		c-0.869,0.201-1.551,0.866-1.785,1.723H68.68C68.974,96.187,70.809,94.384,73.129,94.13z M68.679,99.779h2.664
		c0.234,0.854,0.917,1.521,1.786,1.724v2.645C70.806,103.892,68.974,102.085,68.679,99.779z M74.411,104.13v-2.683
		c0.781-0.248,1.39-0.874,1.606-1.668h2.663C78.393,102.029,76.646,103.805,74.411,104.13z"/>
	<g>
		<path fill="#FCF6F3" d="M135.214,33.372c0,5.037-4.089,9.118-9.126,9.118s-9.118-4.081-9.118-9.118
			c0-5.034,4.081-9.119,9.118-9.119S135.214,28.338,135.214,33.372z"/>
		<g>
			<path fill="#FCF6F3" d="M102.234,80.042l-1.064-5.205l-5.062-9.134l-5.162-9.318l-3.749-3.479l7.71-4.273
				c0,0,0.053,2.208,1.302,4.461c1.796,3.242,5.322,9.604,5.322,9.604s3.233,5.834,4.983,8.991c1.411,2.549,3.435,4.08,3.431,4.08
				L102.234,80.042z"/>
			<circle fill="#FCF6F3" cx="106.09" cy="77.905" r="4.399"/>
			<g>
				<path fill="#FCF6F3" d="M96.01,41.34c-0.171-0.517-0.394-1.027-0.669-1.522c-1.928-3.48-5.811-5.19-9.521-4.525l4.959,8.947
					L96.01,41.34z"/>
				<path fill="#FCF6F3" d="M89.848,45.508l-0.002-0.006l-3.436,1.905l-5.348-9.651c-2.828,2.781-3.583,7.206-1.567,10.845
					c2.426,4.376,7.938,5.959,12.315,3.533c4.606-2.553,5.13-7.241,4.393-10.146L89.848,45.508z"/>
			</g>
			<g>
				
					<rect x="86.533" y="48.561" transform="matrix(0.8745 -0.485 0.485 0.8745 -13.1803 48.4869)" fill="#FCF6F3" width="1.156" height="2.307"/>
				
					<rect x="87.957" y="47.772" transform="matrix(0.875 -0.4841 0.4841 0.875 -12.619 48.9796)" fill="#FCF6F3" width="1.157" height="2.307"/>
				
					<rect x="89.306" y="47.025" transform="matrix(0.8751 -0.4839 0.4839 0.8751 -12.0888 49.5143)" fill="#FCF6F3" width="1.158" height="2.307"/>
				
					<rect x="90.674" y="46.266" transform="matrix(0.8749 -0.4842 0.4842 0.8749 -11.55 50.1196)" fill="#FCF6F3" width="1.159" height="2.307"/>
				
					<rect x="92.061" y="45.497" transform="matrix(0.8748 -0.4845 0.4845 0.8748 -11.0032 50.7243)" fill="#FCF6F3" width="1.156" height="2.308"/>
			</g>
			<path fill="#FCF6F3" d="M108.39,76.631c0.639,1.156,0.222,2.614-0.933,3.255c-1.157,0.641-2.615,0.221-3.256-0.935
				c-0.641-1.156-0.223-2.611,0.934-3.254C106.292,75.056,107.748,75.476,108.39,76.631z"/>
		</g>
		<path fill="#FCF6F3" d="M134.549,80.999c0.212,0,0.421-0.029,0.625-0.083c1.615-0.397,3.01-2.361,3.151-6.167
			c0.21-5.676,2.871-12.991-0.24-22.39c-0.28-0.852-3.207-5.646-3.938-6.165c-0.656-0.466-1.592-0.775-2.317-0.963l-0.01-0.021
			c-0.033-0.005-0.074-0.005-0.108-0.009c-0.551-0.138-0.958-0.204-0.958-0.204l-0.013,0.119c-1.286-0.067-2.808-0.007-4.435-0.019
			c-0.59-0.011-3.16-0.312-5.262,0.188c-1.762,0.423-3.14,1.655-3.189,1.7c-0.674,0.599-2.276,4.728-3.908,7.459l-0.071-0.052
			c-3.539,4.631-13.239,7.973-16.882,5.778c-3.435-2.071-4.761,1.667-4.761,1.667s-1.692,3.437,4.967,6.292
			c2.845,1.225,6.313,0.696,10.984-0.651c2.433-0.706,4.884-2.18,7.005-3.767c0.003,0.083,0.011,0.167,0.007,0.25
			c-0.26,6.104-0.671,15.055-0.799,24.01v5.807l0.034-0.006l-0.034,3.857c0.128,6.125,0.283,13.744,0.367,16.924
			c0.062,3.023,2.129,5.059,4.767,5.059c2.312,0,4.481-1.646,4.678-5.256c0.259-4.771,0.351-12.559,0.358-20.883l0.244-1.918
			l0.106-0.021l1.139-0.244l0.528,0.129l0.232,6.211c0.129,6.125,0.283,13.744,0.367,16.924c0.064,3.023,2.131,5.059,4.768,5.059
			c2.312,0,4.481-1.646,4.679-5.256c0.254-4.678,0.344-12.26,0.355-20.398h0.001v-0.191c0-0.098,0.001-0.193,0.001-0.293h-0.001
			l-0.067-5.848l-0.078-6.583c-0.72,0.649-1.526,0.94-2.278,0.94c-2.562,0-4.459-2.851-4.516-6.774
			c-0.068-3.877,0.457-11.11-0.268-18.104l-0.029-2.024l0.006-1.017l0.647,0.791c1.536,8.144,0.229,16.346,0.296,20.127
			C130.751,78.58,132.42,80.999,134.549,80.999z"/>
	</g>
	<path fill="#FCF6F3" d="M99.185,98.507c-3.833-3.997-11.041-3.479-11.041-3.479v-0.013h-7.629c0.531,0.879,0.896,1.867,1.056,2.925
		c0.008,0.052,0.016,0.103,0.023,0.154c0.044,0.343,0.076,0.689,0.076,1.044c0,0.271-0.014,0.54-0.041,0.804
		c-0.012,0.118-0.035,0.231-0.052,0.348c-0.021,0.144-0.037,0.289-0.065,0.43c-0.033,0.163-0.078,0.32-0.12,0.479
		c-0.024,0.089-0.042,0.18-0.069,0.267c-0.06,0.197-0.132,0.39-0.207,0.58c-0.017,0.043-0.03,0.087-0.048,0.13
		c-1.152,2.801-3.851,4.794-7.033,4.935v1.416h4.689h2.945h6.469l0.005,0.012l0.021,0.006v11.069h13.507v-11.459
		C101.736,106.68,101.788,101.221,99.185,98.507z"/>
	<path fill="#FCF6F3" d="M66.578,102.785c-0.007-0.014-0.013-0.027-0.02-0.041c-0.102-0.2-0.197-0.402-0.281-0.612
		c-0.023-0.056-0.041-0.113-0.062-0.17c-0.065-0.174-0.13-0.347-0.184-0.525c-0.029-0.098-0.051-0.199-0.077-0.299
		c-0.037-0.145-0.078-0.287-0.107-0.435s-0.047-0.299-0.068-0.449c-0.015-0.106-0.036-0.211-0.047-0.318
		c-0.026-0.262-0.04-0.527-0.04-0.797c0-0.354,0.031-0.701,0.076-1.043c0.007-0.053,0.016-0.104,0.024-0.156
		c0.159-1.058,0.524-2.045,1.055-2.924h-7.104v0.013c0,0-6.815-0.519-10.439,3.479c-2.459,2.714-2.411,8.173-2.349,9.646v11.459
		h12.769v-11.069l0.019-0.006l0.003-0.012h6.82h2.079h4.433v-1.429C70.237,106.884,67.816,105.191,66.578,102.785z"/>
</g>
<g id="gardening" display="none">
	<g display="inline">
		<path fill="#FCF6F3" d="M51.508,36.981c0,5.041,4.104,9.135,9.155,9.135c5.056,0,9.161-4.094,9.161-9.135
			c0-5.053-4.105-9.129-9.161-9.129C55.612,27.852,51.508,31.929,51.508,36.981z"/>
		<path fill="#FCF6F3" d="M105.299,106.812c3.672,0,6.658,2.971,6.658,6.646c0,3.654-2.986,6.621-6.658,6.621
			s-6.644-2.967-6.644-6.621C98.655,109.783,101.627,106.812,105.299,106.812z M105.299,118.451c2.775,0,5.025-2.236,5.025-4.994
			c0-2.773-2.25-5.01-5.025-5.01c-2.762,0-5.014,2.236-5.014,5.01C100.285,116.215,102.537,118.451,105.299,118.451z"/>
		<path fill="#FCF6F3" d="M130.52,107.705c3.471,0,6.287,2.77,6.287,6.195c0,3.416-2.816,6.18-6.287,6.18
			c-3.482,0-6.293-2.764-6.293-6.18C124.227,110.475,127.037,107.705,130.52,107.705z M130.52,118.57c2.615,0,4.738-2.09,4.738-4.67
			c0-2.584-2.123-4.672-4.738-4.672c-2.627,0-4.748,2.088-4.748,4.672C125.771,116.48,127.893,118.57,130.52,118.57z"/>
		<path fill="#FCF6F3" d="M106.021,104.648v-0.008c0-1.492,1.166-2.701,2.646-2.787v-0.043h4.393h5.152h0.195h5.143h4.391v0.043
			c1.475,0.086,2.654,1.295,2.654,2.787v0.008h0.002v1.863c-0.145-0.002-0.271-0.023-0.416-0.023c-3.031,0-5.629,1.824-6.727,4.422
			h-5.047h-0.195h-5.426c-0.986-2.887-3.613-5.014-6.77-5.285v-0.977H106.021z"/>
		<path fill="#FCF6F3" d="M124.162,100.754h-12.117v-0.396l0,0l0,0c0-0.738,0.584-1.332,1.316-1.375v-0.025h2.158h2.539h0.088h2.541
			h2.16v0.025c0.732,0.043,1.314,0.637,1.314,1.375l0,0l0,0V100.754z"/>
		<path fill="#FCF6F3" d="M78.172,70.441c0,0,11.167,12.918,14.893,17.225c3.676,4.262,14.732,17.053,14.732,17.053l1.613-1.377
			L94.625,86.23L79.777,69.058L78.172,70.441z"/>
		<path fill="#FCF6F3" d="M55.025,53.304c0,0-1.62-2.074-2.973-1.326c-2.671,1.504-1.545,5.754-0.68,7.49
			c0.882,1.746,1.996,4.364,4.823,7.518c2.832,3.158,7.413,6.629,16.024,5.332c4.007-0.609,3.938-2.919,2.628-4.036
			c-0.805-0.69-2.367-0.851-2.816-0.735c-1.196,0.329-5.643-0.223-8.53-1.967c-2.838-1.72-4.368-4.022-5.12-5.662
			C57.617,58.289,55.025,53.304,55.025,53.304z"/>
		<path fill="#FCF6F3" d="M35.711,107.818c7.676-5.855,8.381-17.883,8.381-17.883s-0.434-3.912-1.078-10.438
			c-0.988-9.822,0-19.798,0.315-21.1c0.203-0.77,0.329-10.115,8.612-10.762c8.289-0.658,7.961,4.777,7.961,4.777
			s-0.496,2.275-1.084,5.23c-0.919-1.559-1.805-3.24-1.971-3.924c-0.323-1.419-2.188-3.588-3.92-3.695
			c-1.746-0.113-3.816,1.953-3.93,3.047c-0.105,1.082-1.271,5.665,2.102,10.121c2.123,2.793,2.641,3.631,5.667,6.507
			c-0.044,0.415-0.049,0.755-0.031,0.985c0.374,4.376-0.647,7.829,0.881,10.766c1.517,2.932,4.575,7.293,4.794,16.312
			c0.213,9.027,0.652,6.197-0.979,14.246c-1.901,9.361-7.852,6.854-7.852,6.854s-3.367-1.893-1.854-5.008
			c4.028-8.27,0.215-16.748,0.215-16.748s-5.984,13.486-9.479,16.967c-3.705,3.705-7.731,1.828-8.281,1.42
			C31.671,113.641,34.797,108.508,35.711,107.818z"/>
		<rect x="110.645" y="112.045" fill="#FCF6F3" width="14.832" height="2.51"/>
		<path fill="#FCF6F3" d="M80.31,100.055c0,0,2.487-10.256,12.979-5.303c3.131,1.479,8.64,5.174,11.728,7.311
			c-0.416,0.623-0.707,1.326-0.787,2.113l-0.018,0.035v0.906c-3.945,0.52-7.005,3.717-7.306,7.715
			c-3.003,0.133-6.947,0.236-10.729-0.271C76.134,111.201,80.31,100.055,80.31,100.055z"/>
		<rect x="72.962" y="69.074" fill="#FCF6F3" width="6.783" height="2.096"/>
	</g>
	<path display="inline" fill="#FCF6F3" d="M170.74,122.397v-0.818h-3.025c-0.337-1.267-0.699-2.707-1.06-4.34
		c-1.212-5.45-1.212-11.763-1.212-11.763s-0.474,4.545-1.833,9.27c-1.271,4.421-2.786,6.632-2.786,6.632s-2.233-6.595-3.065-11.946
		c-0.392-2.48-1.029-3.196-1.983-19.107c0,0-0.999,13.138-1.978,17.559c-0.812,3.647-0.398,4.611-3.733,13.335
		c0,0-2.201-2.978-3.443-7.446c-1.246-4.443-2.564-12.805-2.564-12.805s0.146,17.263-3.528,20.612h-0.74h-0.935v0.818H170.74z"/>
</g>
<g id="treeFelling" display="none">
	<g display="inline">
		<path fill="#FCF6F3" d="M110.721,98.83l-9.133,3.732c-0.006,4.834,0.025,8.904,0.139,11.411c0.154,3.388,2.18,4.876,4.475,5.002
			c2.906,0.162,4.539-2.141,4.471-5.921C110.625,110.131,110.664,104.074,110.721,98.83z"/>
		<path fill="#FCF6F3" d="M113.104,97.854c0.121,5.804,0.27,13.022,0.348,16.033c0.061,2.866,2.018,4.794,4.516,4.794
			c2.191,0,4.244-1.561,4.434-4.979c0.246-4.521,0.33-11.899,0.338-19.785L113.104,97.854z"/>
		<path fill="#FCF6F3" d="M120.707,37.686c0,4.772-3.877,8.639-8.648,8.639s-8.639-3.867-8.639-8.639
			c0-4.769,3.867-8.639,8.639-8.639S120.707,32.917,120.707,37.686z"/>
		<path fill="#FCF6F3" d="M127.936,72.513L77.452,107.7l1.571,2.495l50.631-20.71l7.238-5.781L127.936,72.513z M124.488,78.66
			l2.982-2.605l6.457,7.373l-3.164,2.31L124.488,78.66z"/>
		<path fill="#FCF6F3" d="M132.977,63.032c-0.059-0.162-0.168-0.322-0.236-0.492h0.061c-0.727-1.745-1.777-3.392-2.904-4.86
			c-0.039-0.046-0.068-0.082-0.107-0.13c-2.885-3.745-6.232-6.313-6.232-6.313s-3.061-2.54-5.307-2.995
			c-1.42-0.289-3.443-0.142-5.631-0.158c-0.559-0.01-2.992-0.296-4.986,0.178c-1.666,0.401-2.973,1.569-3.021,1.611
			c-4.492,3.998-17.028-3.548-17.472-8.603c-0.331-3.785-3.933-2.716-3.933-2.716s-3.574,0.62-2.049,7.314
			c0.651,2.862,2.99,5.222,6.629,8.048c4.797,3.716,13.438,4.798,14.606,4.761c0,0.008-0.022,0.736-0.052,1.952h-0.053
			c-0.104,4.571-0.393,16.591-0.562,28.347l20.93-14.578c-0.062-4.942-0.113-9.133-0.145-11.856h0.055
			c-0.031-1.912-0.049-3.07-0.049-3.194c0.139,0.152,1.146,1.25,2.369,3.04c0.078,0.121,0.154,0.219,0.238,0.345
			c0.701,1.063,1.439,2.326,2.096,3.748c0.006,0.008,0.006,0.019,0.006,0.044c0.314,0.673,0.6,1.39,0.857,2.134
			c0.041,0.139,0.084,0.294,0.131,0.436c0.188,0.625,0.367,1.248,0.498,1.91c0.475,2.213,0.576,4.597-0.037,7.046
			c-0.508,2.026,0.492,3.085,2.697,3.694c2.225,0.61,2.961-2.098,3.58-4.189C135.557,75.466,135.443,69.553,132.977,63.032z"/>
		<g>
			<path fill="#FCF6F3" d="M83.176,110.097c-0.166,5.127-0.269,8.523-0.269,8.523l3.147,0.612c0,0,0.021-3.964,0.074-10.345
				L83.176,110.097z"/>
			<path fill="#FCF6F3" d="M86.179,103.418l-2.855,1.996c-0.021,0.481-0.033,0.972-0.045,1.445l2.881-1.18
				C86.162,104.947,86.164,104.206,86.179,103.418z"/>
			<path fill="#FCF6F3" d="M84.939,64.683c-2.149-3.744-6.014-10.431-7.721-13.152c-5.195-8.266-7.799-15.933-7.799-15.933
				L69,35.842c0,0,2.381,7.422,7.125,15.566c3.728,6.404,7.326,13.112,8.666,15.657c-0.441,8.404-0.971,23.095-1.355,34.661
				l2.793-1.936c0.084-6.778,0.221-14.811,0.428-23.219c1.141-1.435,5.764-7.249,10.416-12.757
				c5.377-6.358,8.838-12.275,8.838-12.275l-0.258-0.229c0,0-3.686,6.11-9.424,12.547c-2.125,2.375-7.379,8.64-9.531,11.209
				c0.111-4.047,0.24-8.153,0.383-12.242c0.197-5.48,0.232-10.744,0.164-15.7c1.299-1.221,5.34-4.973,9.469-8.443
				c5.034-4.219,8.031-8.857,8.031-8.857l-0.314-0.342c0,0-3.207,4.718-8.637,8.862c-1.893,1.442-6.402,5.266-8.589,7.135
				c-0.077-4.078-0.214-7.918-0.396-11.428c1.174-1.117,3.795-3.611,6.414-5.98c3.535-3.184,5.947-6.27,5.947-6.27l-0.134-0.145
				c0,0-2.546,3.171-6.289,6.369c-1.302,1.116-4.431,3.949-5.976,5.357c-0.688-12.691-1.826-21.005-1.826-21.005l-1.139-0.066
				c0,0,1.119,9.064,1.554,22.78c-1.836-2.885-4.798-7.509-6.148-9.464c-4.313-6.216-6.56-12.087-6.56-12.087l-0.32,0.208
				c0,0,2.047,5.697,5.998,11.839c2.963,4.599,5.84,9.423,7.08,11.542c0.086,3.163,0.115,6.542,0.103,10.099
				c-1.993-2.521-5.607-7.173-8.978-11.899c-4.998-6.99-10.661-11.417-10.661-11.417l-0.462,0.355c0,0,5.762,4.716,10.605,12.199
				c2.07,3.195,8.35,11.822,9.468,13.357c-0.057,4.714-0.22,9.679-0.546,14.827C84.939,64.661,84.939,64.676,84.939,64.683z"/>
		</g>
	</g>
</g>
<g id="painting" display="none">
	<g display="inline">
		<g>
			<path fill="#FCF6F3" d="M73.823,35.909c0,4.81,3.898,8.703,8.708,8.703c4.801,0,8.695-3.893,8.695-8.703
				c0-4.807-3.894-8.696-8.695-8.696C77.721,27.213,73.823,31.102,73.823,35.909z"/>
			<path fill="#FCF6F3" d="M113.039,31.617c0,0,1.627-4.87-0.695-5.802c-2.324-0.929-3.951,1.398-3.951,1.398
				S92.844,43.919,88.905,46.236c-3.942,2.321-9.75,4.172-10.67,11.374c-0.938,7.193-3.028,16.947,0,21.814
				c3.006,4.873,3.992,1.872,4.864,5.109c0.734,2.693,5.806,16.241,2.548,22.972c-3.239,6.731-1.606,9.469-1.384,9.981
				c0.389,0.874,4.875,4.401,9.051-3.02c4.183-7.426,0.588-27.488-2.088-34.582c-1.622-4.291-1.347-10.253-0.924-12.292
				c1.853-8.934,0.172-12.55,1.853-13.466C103.523,47.925,113.039,31.617,113.039,31.617z"/>
			<g>
				<rect x="120.387" y="11.886" fill="#FCF6F3" width="4.064" height="1.038"/>
				<rect x="123.633" y="11.886" fill="#FCF6F3" width="0.818" height="6.692"/>
				<rect x="111.232" y="17.569" fill="#FCF6F3" width="12.957" height="1.039"/>
				<rect x="111.172" y="17.596" fill="#FCF6F3" width="1.207" height="11.603"/>
				<path fill="#FCF6F3" d="M110.406,30.501h2.508l0.059-9.05c0,0-0.076-0.443-0.26-0.564c-0.342-0.25-0.205-0.334-0.205-0.334
					h-1.479c0,0-0.258,0.186-0.361,0.287c-0.125,0.125-0.197,0.437-0.197,0.437L110.406,30.501z"/>
				<rect x="102.746" y="9.327" fill="#FCF6F3" width="19.725" height="6.036"/>
			</g>
			<path fill="#FCF6F3" d="M87.524,120.707c0.893,0,1.985-0.22,3.157-0.923l-3.29,20.683h32.603l-11.629-69.399h-9.932
				l-3.003,18.847c-0.796-4.4-1.817-8.25-2.701-10.592c-0.018-0.055-0.036-0.113-0.05-0.164l1.948-12.261h17.511l14.039,83.776
				h-4.477l-0.973-5.809H86.692l-0.929,5.809h-4.471l4.806-30.156C86.545,120.636,87.016,120.707,87.524,120.707z"/>
		</g>
		<rect x="89.722" y="119.975" fill="#FCF6F3" width="31.231" height="4.458"/>
		<rect x="91.121" y="100.991" fill="#FCF6F3" width="26.575" height="4.463"/>
		<rect x="94.962" y="82.477" fill="#FCF6F3" width="18.19" height="4.459"/>
	</g>
</g>
</svg>
