<?xml version="1.0" encoding="utf-8"?>
<!-- Generator: Adobe Illustrator 16.0.0, SVG Export Plug-In . SVG Version: 6.00 Build 0)  -->
<!DOCTYPE svg PUBLIC "-//W3C//DTD SVG 1.1//EN" "http://www.w3.org/Graphics/SVG/1.1/DTD/svg11.dtd">
<svg version="1.1" id="Layer_1" xmlns="http://www.w3.org/2000/svg" xmlns:xlink="http://www.w3.org/1999/xlink" x="0px" y="0px"
	 width="55.333px" height="238.333px" viewBox="0 0 55.333 238.333" enable-background="new 0 0 55.333 238.333"
	 xml:space="preserve">
<polygon fill="#FFFFFF" points="17.729,17.949 17.729,217.949 27.729,233.261 37.729,217.949 37.729,17.949 "/>
<g>
	<path fill="#FFFFFF" d="M47.833,13.949c0,2.2-1.8,4-4,4h-0.917c-2.2,0-4.281,0-4.625,0c-0.344,0-2.142,0.969-3.996,2.153
		l-3.091,1.975c-1.854,1.185-4.829,1.097-6.61-0.194l-2.189-1.587c-1.781-1.291-3.562-2.347-3.958-2.347c-0.395,0-0.986,0-1.312,0
		s-2.394,0-4.594,0h-0.708c-2.2,0-4-1.8-4-4v-2c0-2.2,1.8-4,4-4h32c2.2,0,4,1.8,4,4V13.949z"/>
</g>
</svg>